<?xml version="1.0" encoding="utf-8"?>
<!-- Generator: Adobe Illustrator 21.0.0, SVG Export Plug-In . SVG Version: 6.00 Build 0)  -->
<svg version="1.1" id="Capa_1" xmlns="http://www.w3.org/2000/svg" xmlns:xlink="http://www.w3.org/1999/xlink" x="0px" y="0px"
	 viewBox="0 0 25 25" enable-background="new 0 0 25 25" xml:space="preserve">
<path fill="#FFFFFF" d="M13,1.1c-6.2,0-11.2,5-11.2,11.2s5,11.2,11.2,11.2s11.2-5,11.2-11.2S19.2,1.1,13,1.1z M19,16.6
	c0,0.9-0.7,1.6-1.6,1.6h-2.6l0-4.3h1.5c0.1,0,0.2-0.1,0.3-0.2l0.2-1.4c0-0.2-0.1-0.3-0.3-0.3h-1.6v-1.1c0-0.5,0.1-0.9,0.9-0.9l0.7,0
	c0.1,0,0.3-0.1,0.3-0.3V8.6c0-0.1-0.1-0.3-0.3-0.3h-1.1c-1.4,0-2.3,0.8-2.3,2.4v1.3h-1.1c-0.1,0-0.3,0.1-0.3,0.3l0,1.4
	c0,0.1,0.1,0.3,0.3,0.3H13l0,4.3H8.7c-0.9,0-1.6-0.7-1.6-1.6V7.9c0-0.9,0.7-1.6,1.6-1.6h8.7C18.3,6.3,19,7,19,7.9V16.6z"/>
</svg>
