<?xml version="1.0" encoding="utf-8"?>
<!-- Generator: Adobe Illustrator 21.0.0, SVG Export Plug-In . SVG Version: 6.00 Build 0)  -->
<svg version="1.1" id="Capa_1" xmlns="http://www.w3.org/2000/svg" xmlns:xlink="http://www.w3.org/1999/xlink" x="0px" y="0px"
	 viewBox="0 0 25 25" enable-background="new 0 0 25 25" xml:space="preserve">
<g>
	<path fill="#FFFFFF" d="M15.3,7H9.9C8.5,7,7.3,8.2,7.3,9.6v5.3c0,1.4,1.2,2.6,2.6,2.6h5.3c1.4,0,2.6-1.2,2.6-2.6V9.6
		C17.9,8.2,16.7,7,15.3,7z M12.6,15.7c-1.9,0-3.4-1.5-3.4-3.4c0-1.9,1.5-3.4,3.4-3.4s3.4,1.5,3.4,3.4C16,14.2,14.5,15.7,12.6,15.7z
		 M16,9.7c-0.5,0-0.8-0.4-0.8-0.8s0.4-0.8,0.8-0.8c0.5,0,0.8,0.4,0.8,0.8S16.5,9.7,16,9.7z"/>
	<circle fill="#FFFFFF" cx="12.6" cy="12.3" r="2.1"/>
	<path fill="#FFFFFF" d="M12.6,1.1c-6.2,0-11.2,5-11.2,11.2s5,11.2,11.2,11.2s11.2-5,11.2-11.2S18.8,1.1,12.6,1.1z M19.2,14.9
		c0,2.2-1.8,3.9-3.9,3.9H9.9c-2.2,0-3.9-1.8-3.9-3.9V9.6c0-2.2,1.8-3.9,3.9-3.9h5.3c2.2,0,3.9,1.8,3.9,3.9V14.9z"/>
	<path fill="#FFFFFF" d="M12.6,14.4c-1.1,0-2.1-0.9-2.1-2.1c0-1.2,0.9-2.1,2.1-2.1c1.1,0,2.1,0.9,2.1,2.1
		C14.7,13.4,13.7,14.4,12.6,14.4z"/>
</g>
</svg>
