<?xml version="1.0" encoding="utf-8"?>
<!-- Generator: Adobe Illustrator 21.0.0, SVG Export Plug-In . SVG Version: 6.00 Build 0)  -->
<svg version="1.1" id="Layer_1" xmlns="http://www.w3.org/2000/svg" xmlns:xlink="http://www.w3.org/1999/xlink" x="0px" y="0px"
	 viewBox="0 0 201.1 199" enable-background="new 0 0 201.1 199" xml:space="preserve">
<g>
	<path fill="#FFFFFF" d="M98.7,12.7c-48.2,0-87.3,39.1-87.3,87.3c0,48.2,39.1,87.3,87.3,87.3c48.2,0,87.3-39.1,87.3-87.3
		C186,51.8,146.9,12.7,98.7,12.7z M149.5,128.6c0,11.5-9.3,20.9-20.9,20.9H68.8c-11.5,0-20.9-9.3-20.9-20.9V68.8
		c0-11.5,9.3-20.9,20.9-20.9h59.8c11.5,0,20.9,9.3,20.9,20.9V128.6z"/>
	<path fill="#FFFFFF" d="M70.8,62c-4.9,0-8.8,4-8.8,8.8c0,4.9,3.9,8.8,8.8,8.8c4.9,0,8.8-4,8.8-8.8C79.7,66,75.7,62,70.8,62z"/>
	<rect x="63.2" y="86.4" fill="#FFFFFF" width="15.2" height="49"/>
	<path fill="#FFFFFF" d="M117.2,85.2c-7.4,0-12.4,4.1-14.4,7.9h-0.2v-6.7H88v49h15.2v-24.3c0-6.4,1.2-12.6,9.1-12.6
		c7.8,0,7.9,7.3,7.9,13v23.8h15.2v-26.9C135.5,95.3,132.7,85.2,117.2,85.2z"/>
</g>
</svg>
