<?xml version="1.0" encoding="utf-8"?>
<!-- Generator: Adobe Illustrator 21.0.0, SVG Export Plug-In . SVG Version: 6.00 Build 0)  -->
<svg version="1.1" id="Capa_1" xmlns="http://www.w3.org/2000/svg" xmlns:xlink="http://www.w3.org/1999/xlink" x="0px" y="0px"
	 viewBox="0 0 25 25" enable-background="new 0 0 25 25" xml:space="preserve">
<path fill="#FFFFFF" d="M12.5,1.1c-6.2,0-11.2,5-11.2,11.2s5,11.2,11.2,11.2s11.2-5,11.2-11.2S18.7,1.1,12.5,1.1z M19.3,9.4
	c-0.3,0.4-0.6,0.8-1,1.2c-0.1,0.1-0.2,0.2-0.2,0.3v0c0,0.8-0.2,1.7-0.5,2.6c-0.3,0.9-0.8,1.7-1.4,2.3c-0.6,0.7-1.4,1.3-2.3,1.7
	c-0.9,0.4-2,0.7-3.1,0.7c-1.3,0-2.5-0.3-3.6-1C7.1,17.2,7,17.1,7,17c0-0.1,0.1-0.2,0.2-0.2h0.3c1,0,1.9-0.3,2.7-0.8
	c-1-0.2-1.8-0.9-2.1-1.8c0-0.1,0.1-0.2,0.2-0.2c0.1,0,0.3,0,0.4,0c0,0,0,0,0.1,0c-0.9-0.4-1.6-1.4-1.5-2.4c0-0.1,0.1-0.2,0.2-0.1
	c0.2,0.1,0.4,0.2,0.6,0.2c-0.5-0.5-0.8-1.2-0.8-1.9c0-0.5,0.1-0.9,0.4-1.3c0-0.1,0.2-0.1,0.2,0c1.2,1.5,2.9,2.4,4.8,2.5c0,0,0,0,0,0
	c0,0,0.1,0,0.1,0c0,0,0,0,0-0.1c0-0.3,0-0.6,0.1-1c0.2-0.9,0.9-1.6,1.7-1.8C14.8,8.1,15.1,8,15.4,8c0.6,0,1.3,0.2,1.7,0.7
	c0.1,0.1,0.1,0.1,0.2,0.1c0,0,0.1,0,0.1,0c0.5-0.1,0.9-0.3,1.3-0.5c0.1-0.1,0.2,0,0.2,0.2c-0.1,0.4-0.4,0.8-0.7,1.1
	c0.3-0.1,0.6-0.2,0.8-0.3C19.2,9.2,19.3,9.3,19.3,9.4z"/>
</svg>
