<?xml version="1.0" encoding="utf-8"?>
<!-- Generator: Adobe Illustrator 21.0.0, SVG Export Plug-In . SVG Version: 6.00 Build 0)  -->
<svg version="1.1" id="Capa_1" xmlns="http://www.w3.org/2000/svg" xmlns:xlink="http://www.w3.org/1999/xlink" x="0px" y="0px"
	 viewBox="0 0 25 25" enable-background="new 0 0 25 25" xml:space="preserve">
<g>
	<path fill="#FFFFFF" d="M11.4,10.6c-0.1,0-0.2,0-0.2,0.1v3.6c0,0.1,0.1,0.2,0.2,0.1l3.7-1.7c0.1-0.1,0.1-0.2,0-0.3L11.4,10.6z"/>
	<path fill="#FFFFFF" d="M12.9,1C6.7,1,1.7,6,1.7,12.1c0,6.2,5,11.2,11.2,11.2s11.2-5,11.2-11.2C24.1,6,19.1,1,12.9,1z M19.7,14.5
		c0,1.5-1.2,2.8-2.8,2.8H9.1c-1.5,0-2.8-1.2-2.8-2.8v-3.9c0-1.5,1.2-2.8,2.8-2.8h7.8c1.5,0,2.8,1.2,2.8,2.8V14.5z"/>
</g>
</svg>
