<?xml version="1.0" encoding="utf-8"?>
<!-- Generator: Adobe Illustrator 21.0.0, SVG Export Plug-In . SVG Version: 6.00 Build 0)  -->
<svg version="1.1" id="Capa_1" xmlns="http://www.w3.org/2000/svg" xmlns:xlink="http://www.w3.org/1999/xlink" x="0px" y="0px"
	 viewBox="0 0 77.5 75" enable-background="new 0 0 77.5 75" xml:space="preserve">
<path fill="#F5F4F4" d="M68.5,1.4H39V1.3H7.4C4.3,1.3,1.8,3.9,1.8,7v29.4v2.3v29.4c0,3.1,2.5,5.7,5.6,5.7h29.5H39h29.5
	c3.1,0,5.6-2.5,5.6-5.7V38.8v-2.4V7.1C74.2,4,71.7,1.4,68.5,1.4 M4.1,7c0-1.9,1.5-3.4,3.4-3.4h29.3v10.6c0,0.6,0.3,1.2,0.9,1.5
	c0,0,0.1,0,0.1,0c0,0,0.1,0.1,0.1,0.1c0.6,0.3,1.2,0.2,1.8-0.1c1.1-0.7,2.3-1.1,3.6-0.9c0.6,0.1,1.2,0.2,1.7,0.5
	c1.5,0.8,2.7,2.3,2.9,4.2c0.2,1.6-0.3,3.1-1.3,4.2c-1,1.1-2.5,1.8-4,1.8c-0.8,0-1.6-0.2-2.3-0.5c-0.2-0.1-0.4-0.2-0.6-0.3
	c0,0-0.1,0-0.1-0.1c0,0,0,0-0.1,0c-0.5-0.4-1.2-0.4-1.8-0.1c-0.6,0.3-0.9,0.9-0.9,1.5v10.6h-9.6c0.5-1.1,0.8-2.3,0.8-3.5
	c0-2.2-0.9-4.2-2.5-5.7c0,0,0,0,0,0c-0.8-0.7-1.7-1.2-2.7-1.5c0,0-0.1,0-0.1,0c-0.1,0-0.3-0.1-0.4-0.1c-0.1,0-0.2-0.1-0.4-0.1
	c-0.5-0.1-1-0.2-1.5-0.2c0,0-0.1,0-0.1,0c-0.1,0-0.1,0-0.2,0c-0.2,0-0.4,0-0.6,0c-3.5,0.4-6.4,3.2-6.7,6.8c0,0.3,0,0.6,0,0.9
	c0,0.1,0,0.1,0,0.2c0,0,0,0.1,0,0.1c0.1,1.1,0.3,2.1,0.8,3.1H4.1V7z M36.8,71.5H7.4c-1.9,0-3.4-1.5-3.4-3.4V38.7h10.6h0
	c0.6,0,1.2-0.3,1.5-0.9c0.1-0.3,0.2-0.6,0.2-0.9c0-0.3-0.1-0.6-0.3-0.9c-0.7-1.1-1.1-2.3-0.9-3.6c0-0.2,0.1-0.3,0.1-0.5
	c0-0.1,0-0.3,0.1-0.4c0,0,0,0,0,0c0.4-1.5,1.4-2.7,2.8-3.3c0.1,0,0.2-0.1,0.3-0.1c0.2-0.1,0.4-0.2,0.5-0.2c0.1,0,0.2,0,0.3-0.1
	c0.2,0,0.4-0.1,0.6-0.1c0.9-0.1,1.8,0,2.6,0.4c0.6,0.2,1.1,0.5,1.6,1c0.3,0.3,0.5,0.5,0.8,0.8c0.7,0.9,1,2,1,3.2
	c0,1.1-0.3,2.2-1,3.1c-0.4,0.5-0.4,1.2-0.1,1.8c0.1,0.2,0.3,0.4,0.5,0.6c0,0,0.1,0,0.1,0.1c0.1,0,0.2,0.1,0.2,0.1
	c0.1,0,0.1,0.1,0.2,0.1c0.1,0,0.3,0.1,0.5,0.1h10.6v9.5c-1-0.5-2.1-0.8-3.3-0.8c0,0-0.1,0-0.1,0c0,0-0.1,0-0.1,0
	c-2.2,0-4.2,0.9-5.7,2.5c-1.4,1.6-2.1,3.8-1.9,6c0.4,3.5,3.2,6.4,6.8,6.7c0.4,0,0.8,0,1.1,0c1.1,0,2.1-0.3,3.1-0.7V71.5z M71.9,68.1
	c0,1.9-1.5,3.4-3.4,3.4H39.2V60.9c0-0.6-0.3-1.2-0.9-1.5c-0.3-0.2-0.6-0.2-0.9-0.2c-0.4,0-0.7,0.1-1,0.3c-0.8,0.6-1.7,0.9-2.6,0.9
	c-0.3,0-0.5,0-0.8,0c-2.5-0.3-4.5-2.2-4.8-4.7c-0.2-1.6,0.3-3.1,1.3-4.2c1-1.1,2.4-1.8,3.9-1.8c1.1,0,2.1,0.3,2.9,1
	c0.3,0.2,0.6,0.3,1,0.3c0.3,0,0.6,0,0.9-0.2c0.6-0.3,0.9-0.9,0.9-1.5V38.8h9.5c-0.5,1-0.8,2.2-0.8,3.4c0,0,0,0,0,0.1c0,0,0,0,0,0
	c0,2.2,0.9,4.3,2.5,5.7c1.4,1.3,3.2,1.9,5.1,1.9c0.3,0,0.6,0,0.8,0c3.5-0.4,6.4-3.2,6.7-6.8v0c0-0.4,0-0.8,0-1.1
	c0-1.1-0.3-2.2-0.8-3.1h9.5V68.1z M71.9,36.4H61.4c-0.6,0-1.2,0.3-1.5,0.9c-0.2,0.3-0.2,0.6-0.2,0.9c0,0.3,0.1,0.7,0.3,0.9
	c0.6,0.8,0.9,1.7,0.9,2.6c0,0.3,0,0.6,0,0.9c-0.3,2.5-2.2,4.5-4.7,4.8c-1.5,0.2-3-0.3-4.2-1.3c-1.1-1-1.8-2.5-1.8-4
	c0-1.1,0.3-2.1,1-3c0.2-0.3,0.3-0.6,0.3-0.9c0-0.3,0-0.6-0.2-0.9c-0.3-0.6-0.9-0.9-1.5-0.9H39.2v-9.5c1.1,0.5,2.2,0.8,3.5,0.8
	c2.2,0,4.2-0.9,5.7-2.5c1.4-1.6,2.1-3.8,1.9-6c-0.3-2.7-2-4.9-4.3-6c-0.8-0.4-1.7-0.7-2.6-0.8c-1.4-0.1-2.8,0.1-4.1,0.7V3.7h29.3
	c1.9,0,3.4,1.5,3.4,3.4V36.4z"/>
</svg>
