<?xml version="1.0" encoding="utf-8"?>
<!-- Generator: Adobe Illustrator 21.0.0, SVG Export Plug-In . SVG Version: 6.00 Build 0)  -->
<svg version="1.1" id="Capa_1" xmlns="http://www.w3.org/2000/svg" xmlns:xlink="http://www.w3.org/1999/xlink" x="0px" y="0px"
	 viewBox="0 0 103.8 71.1" enable-background="new 0 0 103.8 71.1" xml:space="preserve">
<g>
	<g>
		<path fill="#F5F4F4" d="M53.1,61h-2.5V46.4l2.5,0.1l0.3,0.3c1.9,1.7,3.8,2.6,5.6,2.6c0,0,0,0,0,0c2.8,0,5.2-2.6,5.3-5.9l0-0.3
			c-0.1-3.3-2.4-5.9-5.3-6c-1.9,0-3.9,0.8-5.7,2.4l-0.4,0.3h-2.4v-7.5h2.5v4.2c1.9-1.3,3.9-1.9,5.9-1.9c0,0,0,0,0.1,0
			c4.2,0,7.6,3.7,7.7,8.4v0.3c-0.2,4.7-3.6,8.4-7.8,8.4c0,0,0,0,0,0c-2,0-4-0.7-5.9-2.2V61z"/>
		<path fill="#F5F4F4" d="M79.3,71.1h-2.5V58.8c0-0.7,0.6-1.2,1.2-1.2h11.7c2.4,0,3.3-2.1,3.3-3.9V43.4c0-0.7,0.6-1.2,1.2-1.2h6.1
			l-6.7-19.2c0-0.1-0.1-0.2-0.1-0.3c-0.9-10.6-9-19.1-19.3-20.1l-21.1,0l0.1,11.4c0,0.3-0.1,0.7-0.4,0.9c-0.2,0.2-0.6,0.4-0.9,0.4
			l-0.8,0c-0.3,0-0.6-0.1-0.8-0.3c-1.9-1.7-3.9-2.6-5.7-2.5c-2.8,0-5.1,2.7-5.3,6l0,0.3c0.1,3.3,2.5,5.9,5.3,5.9c0,0,0,0,0,0
			c1.6,0,3.4-1,5.6-2.9c0.2-0.2,0.5-0.3,0.8-0.3h0.6c0.7,0,1.2,0.6,1.2,1.2v6.2h-2.5v-4.1c-2.1,1.6-4,2.3-5.8,2.4c0,0,0,0,0,0
			c-4.2,0-7.6-3.6-7.8-8.3l0-0.4c0.1-4.7,3.5-8.4,7.7-8.5c0,0,0,0,0,0c2,0,4,0.7,6,2.1L50.6,1.3c0-0.3,0.1-0.7,0.4-0.9
			C51.2,0.2,51.6,0,51.9,0h22.5C86,1.1,95,10.5,96.1,22.2l6.8,19.4c0.2,0.6,0.2,1.4-0.3,2c-0.4,0.6-1.1,1-1.8,1h-5.2v9
			c0,3.8-2.4,6.4-5.7,6.4H79.3V71.1z M100.5,42.5C100.5,42.5,100.5,42.5,100.5,42.5L100.5,42.5z"/>
		<g>
			<path fill="#F5F4F4" d="M27,71.1h-2.5V60H14c-3.4,0-5.7-2.6-5.7-6.4v-9H3c-0.7,0-1.4-0.4-1.8-1c-0.4-0.6-0.5-1.4-0.2-2.1
				l6.8-19.4c1-11.7,10.1-21,21.6-22.1L30.6,0l16.3,0v2.5H30.7l-1.2,0.1C19.2,3.6,11,12,10.2,22.6l-0.1,0.3L3.4,42.1h7.4v11.5
				c0,1.8,0.9,3.9,3.3,3.9h13V71.1z M3.3,42.5L3.3,42.5C3.3,42.5,3.3,42.5,3.3,42.5z"/>
		</g>
	</g>
	<rect x="50.6" y="64.8" fill="#F5F4F4" width="2.5" height="2.5"/>
</g>
</svg>
