<?xml version="1.0" encoding="utf-8"?>
<!-- Generator: Adobe Illustrator 21.0.0, SVG Export Plug-In . SVG Version: 6.00 Build 0)  -->
<svg version="1.1" id="Capa_1" xmlns="http://www.w3.org/2000/svg" xmlns:xlink="http://www.w3.org/1999/xlink" x="0px" y="0px"
	 viewBox="0 0 70.5 103.3" enable-background="new 0 0 70.5 103.3" xml:space="preserve">
<g>
	<path fill="#F5F4F4" d="M69.5,39.7c-0.2-0.5-0.6-0.9-1.1-0.9l-21.9-3.2l-9.8-19.8C36.5,15.2,36,15,35.4,15c-0.5,0-1,0.3-1.3,0.7
		l-9.8,19.8L2.5,38.7c-0.5,0.1-1,0.4-1.1,0.9c-0.2,0.5,0,1.1,0.4,1.4l15.8,15.4l-3.7,21.8c-0.1,0.5,0.1,1.1,0.6,1.4
		c0.2,0.2,0.5,0.3,0.8,0.3c0.2,0,0.4-0.1,0.6-0.2l7.8-4.1c0.7-0.4,0.9-1.2,0.6-1.9c-0.4-0.7-1.2-0.9-1.9-0.6L17.1,76l3.4-19.7
		c0.1-0.5-0.1-0.9-0.4-1.2l-14.3-14l19.8-2.9c0.5-0.1,0.8-0.4,1.1-0.8l8.9-18l8.9,18c0.2,0.4,0.6,0.7,1.1,0.8l19.8,2.9l-14.3,14
		c-0.3,0.3-0.5,0.8-0.4,1.2L53.8,76l-5.6-3c-0.7-0.4-1.5-0.1-1.9,0.6c-0.4,0.7-0.1,1.5,0.6,1.9l8.1,4.3c0.5,0.2,1,0.2,1.5-0.1
		c0.4-0.3,0.6-0.8,0.6-1.4l-3.7-21.8l15.8-15.4C69.5,40.7,69.7,40.2,69.5,39.7z"/>
	<path fill="#F5F4F4" d="M43.4,58.8c-0.8,0-1.4,0.6-1.4,1.4v2.1H28.6v-2.1c0-0.8-0.6-1.4-1.4-1.4c-0.8,0-1.4,0.6-1.4,1.4v40.4
		c0,0.8,0.6,1.4,1.4,1.4c0.8,0,1.4-0.6,1.4-1.4v-3.2H42v3.2c0,0.8,0.6,1.4,1.4,1.4c0.8,0,1.4-0.6,1.4-1.4V60.2
		C44.8,59.4,44.1,58.8,43.4,58.8z M28.6,83.8v-8H42v8H28.6z M42,73H28.6v-8H42V73z M28.6,86.6H42v8H28.6V86.6z"/>
	<path fill="#F5F4F4" d="M35.3,10.8c0.8,0,1.4-0.6,1.4-1.4V2.5c0-0.8-0.6-1.4-1.4-1.4c-0.8,0-1.4,0.6-1.4,1.4v6.9
		C33.9,10.2,34.5,10.8,35.3,10.8z"/>
	<path fill="#F5F4F4" d="M13.8,27.7c0.3,0.3,0.6,0.4,1,0.4c0.4,0,0.7-0.1,1-0.4c0.5-0.5,0.5-1.4,0-2l-4.9-4.9c-0.5-0.5-1.4-0.5-2,0
		c-0.5,0.5-0.5,1.4,0,2L13.8,27.7z"/>
	<path fill="#F5F4F4" d="M56.1,28.1c0.4,0,0.7-0.1,1-0.4l4.9-4.9c0.5-0.5,0.5-1.4,0-2c-0.5-0.5-1.4-0.5-2,0l-4.9,4.9
		c-0.5,0.5-0.5,1.4,0,2C55.3,27.9,55.7,28.1,56.1,28.1z"/>
</g>
</svg>
