<svg id="Capa_1" data-name="Capa 1" xmlns="http://www.w3.org/2000/svg" viewBox="0 0 660.38 425.2"><defs><style>.cls-1{fill:#fff;}</style></defs><title>LOGO_NEGATIVA</title><path class="cls-1" d="M503.17,137.82c0,8.29-5.08,14.81-13.37,17,10.06,1.87,16.14,9.39,16.14,19.55,0,13.25-11.27,21.43-29.17,21.43H440V118.49h35.57C492.57,118.49,503.17,125.89,503.17,137.82ZM485.28,141c0-5.3-4-8.4-10.61-8.29H457.44v16.9h17.23C481.3,149.64,485.28,146.44,485.28,141Zm2.65,31.15c0-5.64-5.08-9.06-13.26-9H457.44v18.34h17.23C482.85,181.57,487.93,178.14,487.93,172.18Z"/><path class="cls-1" d="M571.58,171H528.94c2,7.51,7.73,11.93,15.36,11.93a21.07,21.07,0,0,0,15-6.3l8.94,9.06c-6,6.63-14.69,10.5-25.4,10.5-19,0-31-12.16-31-30.16,0-18.34,12.48-30.49,30.6-30.49C563.29,135.52,573,149.33,571.58,171Zm-15.91-10c-.22-7.85-5.3-12.93-13.14-12.93-7.52,0-12.59,5.08-13.92,12.93Z"/><path class="cls-1" d="M105,222.18c-13.26,0-23.53,10.28-23.53,23.75S91.7,269.8,105,269.8c7,0,14.58-3.54,20.1-9.06l10.27,11.15c-8.17,8.4-20,13.81-31.26,13.81-23.08,0-40.54-17.12-40.54-39.55s17.79-39.1,41.21-39.1a44,44,0,0,1,30.48,12.81l-10.16,12.37C119.76,226.16,112.14,222.18,105,222.18Z"/><path class="cls-1" d="M202.61,255.21c0,18.12-12.82,30.38-31.82,30.38s-31.92-12.26-31.92-30.38S151.68,225,170.79,225,202.61,237,202.61,255.21Zm-46.73.22c0,9.72,6.08,16.35,14.91,16.35s14.81-6.63,14.81-16.35-6.08-16.35-14.81-16.35S155.88,245.71,155.88,255.43Z"/><path class="cls-1" d="M248.34,284.93v-7c-4,5-10.38,7.73-18.67,7.73-12.7,0-20.43-7.73-20.43-18.56,0-11.15,8.06-17.78,22.64-17.89h16.35v-1.11c0-6.29-4.2-9.94-12.37-9.94-5.3,0-11.49,1.77-17.68,5.19l-5.3-11.7c8.84-4.43,16.46-6.85,26.84-6.85,15.91,0,25.08,7.95,25.19,21.31l.11,38.78Zm-.11-20.33v-5.3H234.86c-6.51,0-9.72,2-9.72,6.74,0,4.53,3.54,7.51,9.28,7.51C241.6,273.55,247.24,269.68,248.23,264.6Z"/><path class="cls-1" d="M304.38,239.42c-8.29,0-14.14,6.4-14.14,15.9s5.85,16.13,14.14,16.13c6.07,0,10.82-2.32,13.81-7l11.7,7.95c-5,8.29-14.24,13.15-26.4,13.15-18,0-30.26-12.15-30.26-30.16,0-18.22,12.26-30.48,30.48-30.48,11.38,0,20.44,4.53,25.74,12.48L318,245.71A16.36,16.36,0,0,0,304.38,239.42Z"/><path class="cls-1" d="M399.08,247.59v37.34h-17V252.56c0-7.51-4.42-12.15-11.71-12.15-8.5.11-13.69,6.52-13.69,15.25v29.27h-17V203h17v33c4.2-7.4,11.27-11,20.54-11.15C390.57,224.84,399.08,233.67,399.08,247.59Z"/><path class="cls-1" d="M429.23,128.44c0,6-4.15,10.39-10,10.39s-10-4.41-10-10.39,4.28-10.26,10-10.26S429.23,122.33,429.23,128.44Z"/><path class="cls-1" d="M427.86,225.5v59.43h-17V225.5Z"/><path class="cls-1" d="M499.31,247.59v37.34h-17V252.56c0-7.51-4.42-12.15-11.71-12.15-8.51.11-13.59,6.52-13.59,15.25v29.27H440V225.5h17v10.38c4.2-7.4,11.26-10.93,20.55-11C490.8,224.84,499.31,233.67,499.31,247.59Z"/><path class="cls-1" d="M568.27,225.5v53.9c0,16.91-12.7,27.62-31.7,27.62a46.21,46.21,0,0,1-25.85-7.84L517,287.25a31.49,31.49,0,0,0,18.45,6c9.72,0,15.91-5.19,15.91-13.25v-6.74c-4,5.52-10.06,8.62-17.9,8.62-15.35,0-26-11.49-26-28.73C507.52,236.32,517.9,225,533,225c8.06-.11,14.25,3.09,18.34,8.61V225.5Zm-16.9,28.06c0-9.17-5.63-15.47-13.92-15.47s-13.92,6.41-14,15.47c.11,9.05,5.63,15.35,14,15.35S551.37,262.61,551.37,253.56Z"/></svg>