<?xml version="1.0" encoding="utf-8"?>
<!-- Generator: Adobe Illustrator 21.0.0, SVG Export Plug-In . SVG Version: 6.00 Build 0)  -->
<svg version="1.1" id="Capa_1" xmlns="http://www.w3.org/2000/svg" xmlns:xlink="http://www.w3.org/1999/xlink" x="0px" y="0px"
	 viewBox="0 0 401.3 168.7" enable-background="new 0 0 401.3 168.7" xml:space="preserve">
<g id="LOGO_BE_EJECUTIVO">
	<g>
		<path fill="#FFFFFF" d="M344.4,16.3c0,5.8-3.6,10.4-9.4,11.9c7.1,1.3,11.3,6.6,11.3,13.7c0,9.3-7.9,15-20.5,15H300V2.7h25
			C336.9,2.7,344.4,7.9,344.4,16.3z M331.8,18.5c0-3.7-2.8-5.9-7.4-5.8h-12.1v11.9h12.1C329,24.6,331.8,22.3,331.8,18.5z
			 M333.7,40.4c0-4-3.6-6.4-9.3-6.3h-12.1V47h12.1C330.1,47,333.7,44.6,333.7,40.4z"/>
		<path fill="#FFFFFF" d="M392.4,39.5h-29.9c1.4,5.3,5.4,8.4,10.8,8.4c4,0,7.7-1.5,10.5-4.4l6.3,6.4c-4.2,4.6-10.3,7.4-17.8,7.4
			c-13.3,0-21.8-8.5-21.8-21.2c0-12.9,8.8-21.4,21.5-21.4C386.5,14.7,393.4,24.3,392.4,39.5z M381.2,32.5c-0.2-5.5-3.7-9.1-9.2-9.1
			c-5.3,0-8.8,3.6-9.8,9.1H381.2z"/>
		<path fill="#FFFFFF" d="M292.5,9.7c0,4.2-2.9,7.3-7,7.3c-4,0-7-3.1-7-7.3c0-4.3,3-7.2,7-7.2C289.6,2.5,292.5,5.4,292.5,9.7z"/>
	</g>
	<g>
		<g>
			<path fill="#F8F8F7" d="M52.8,143.5v4.2H8.9V84.1h42.5v4.2H13.5v25.1h33.9v4.1H13.5v26.1H52.8z"/>
			<path fill="#F8F8F7" d="M53,164.8c-1.7-0.5-3.1-1.3-4.2-2.4l1.8-3.4c1.9,1.8,4.5,2.6,7.7,2.6c2.8,0,4.9-0.8,6.4-2.5
				c1.5-1.6,2.2-4,2.2-7.1v-52h4.5v52.2c0,4.1-1.1,7.3-3.4,9.7c-2.2,2.4-5.4,3.6-9.5,3.6C56.6,165.7,54.7,165.4,53,164.8z
				 M66.5,87.6c-0.7-0.7-1.1-1.6-1.1-2.6c0-1,0.4-1.9,1.1-2.6c0.7-0.7,1.6-1.1,2.6-1.1c1,0,1.9,0.3,2.6,1c0.7,0.7,1.1,1.6,1.1,2.6
				c0,1-0.4,1.9-1.1,2.6c-0.7,0.7-1.6,1.1-2.6,1.1C68.1,88.7,67.2,88.3,66.5,87.6z"/>
			<path fill="#F8F8F7" d="M128.8,125H88c0.1,3.7,1.1,7,2.8,9.9c1.8,2.9,4.1,5.1,7.1,6.7c3,1.6,6.4,2.4,10.1,2.4
				c3.1,0,6-0.6,8.6-1.7c2.6-1.1,4.8-2.8,6.6-5l2.6,3c-2.1,2.5-4.7,4.4-7.8,5.7c-3.1,1.3-6.5,2-10.1,2c-4.7,0-8.9-1-12.6-3.1
				c-3.7-2.1-6.6-4.9-8.7-8.5c-2.1-3.6-3.1-7.8-3.1-12.5c0-4.6,1-8.7,3-12.4c2-3.7,4.7-6.5,8.1-8.6c3.5-2.1,7.3-3.1,11.6-3.1
				c4.3,0,8.2,1,11.6,3c3.4,2,6.1,4.9,8.1,8.5c2,3.6,3,7.8,3,12.4L128.8,125z M97.3,106.1c-2.7,1.5-4.8,3.6-6.4,6.3
				c-1.6,2.7-2.5,5.7-2.8,9.1h36.4c-0.2-3.4-1.1-6.4-2.7-9.1c-1.6-2.7-3.8-4.8-6.5-6.3c-2.7-1.5-5.7-2.3-9-2.3
				C103,103.9,100,104.6,97.3,106.1z"/>
			<path fill="#F8F8F7" d="M147.7,144.9c-3.6-2.1-6.5-4.9-8.5-8.6c-2.1-3.7-3.1-7.8-3.1-12.4c0-4.7,1-8.8,3.1-12.5
				c2.1-3.7,4.9-6.5,8.5-8.5c3.6-2,7.8-3,12.4-3c3.8,0,7.3,0.7,10.4,2.2c3.1,1.5,5.6,3.7,7.6,6.5l-3.4,2.5c-1.7-2.4-3.8-4.1-6.3-5.3
				c-2.5-1.2-5.3-1.8-8.3-1.8c-3.7,0-7,0.8-10,2.5c-2.9,1.7-5.2,4-6.9,7c-1.7,3-2.5,6.5-2.5,10.5c0,3.9,0.8,7.4,2.5,10.5
				c1.7,3,4,5.4,6.9,7c2.9,1.7,6.3,2.5,10,2.5c3,0,5.8-0.6,8.3-1.8c2.5-1.2,4.6-3,6.3-5.3l3.4,2.5c-1.9,2.8-4.5,5-7.6,6.5
				c-3.1,1.5-6.6,2.2-10.4,2.2C155.4,148,151.3,147,147.7,144.9z"/>
			<path fill="#F8F8F7" d="M231.4,100.2v47.4H227v-10.2c-1.6,3.3-3.9,5.9-7,7.8c-3.1,1.8-6.7,2.8-10.9,2.8c-6.2,0-11-1.7-14.5-5.2
				c-3.5-3.5-5.3-8.4-5.3-14.9v-27.7h4.5v27.4c0,5.3,1.4,9.4,4.1,12.2c2.7,2.8,6.6,4.2,11.5,4.2c5.3,0,9.6-1.7,12.7-5
				c3.1-3.3,4.7-7.8,4.7-13.5v-25.3H231.4z"/>
			<path fill="#F8F8F7" d="M272.3,144.7c-1.2,1.1-2.6,1.9-4.3,2.5c-1.7,0.6-3.5,0.9-5.4,0.9c-4.1,0-7.3-1.1-9.5-3.4
				c-2.2-2.3-3.4-5.4-3.4-9.5v-31H241v-3.9h8.7V89.9h4.5v10.4h15.1v3.9h-15.1v30.5c0,3.1,0.7,5.4,2.2,7c1.5,1.6,3.7,2.4,6.6,2.4
				c3,0,5.4-0.9,7.4-2.6L272.3,144.7z"/>
			<path fill="#F8F8F7" d="M282.8,87.6c-0.7-0.7-1.1-1.6-1.1-2.6c0-1,0.4-1.9,1.1-2.6c0.7-0.7,1.6-1.1,2.6-1.1c1,0,1.9,0.3,2.6,1
				c0.7,0.7,1.1,1.6,1.1,2.6c0,1-0.4,1.9-1.1,2.6c-0.7,0.7-1.6,1.1-2.6,1.1C284.4,88.7,283.5,88.3,282.8,87.6z M283.2,100.2h4.5
				v47.4h-4.5V100.2z"/>
			<path fill="#F8F8F7" d="M343.1,100.2l-21.4,47.4h-4.6l-21.4-47.4h4.8l18.9,42.4l19.1-42.4H343.1z"/>
			<path fill="#F8F8F7" d="M356.3,144.9c-3.6-2.1-6.4-4.9-8.5-8.6c-2.1-3.7-3.1-7.8-3.1-12.4c0-4.6,1-8.7,3.1-12.4
				c2.1-3.7,4.9-6.5,8.5-8.6c3.6-2.1,7.6-3.1,12.1-3.1c4.5,0,8.5,1,12.1,3.1c3.6,2.1,6.4,4.9,8.5,8.6c2.1,3.7,3.1,7.8,3.1,12.4
				c0,4.6-1,8.7-3.1,12.4c-2.1,3.7-4.9,6.5-8.5,8.6c-3.6,2.1-7.6,3.1-12.1,3.1C363.9,148,359.9,147,356.3,144.9z M378.2,141.4
				c2.9-1.7,5.1-4.1,6.8-7.1c1.7-3,2.5-6.5,2.5-10.4c0-3.9-0.8-7.3-2.5-10.4c-1.7-3-3.9-5.4-6.8-7.1c-2.9-1.7-6.1-2.5-9.8-2.5
				c-3.6,0-6.9,0.8-9.8,2.5c-2.9,1.7-5.2,4.1-6.8,7.1c-1.7,3-2.5,6.5-2.5,10.4c0,3.9,0.8,7.3,2.5,10.4c1.7,3,3.9,5.4,6.8,7.1
				c2.9,1.7,6.1,2.5,9.8,2.5C372,143.9,375.3,143.1,378.2,141.4z"/>
		</g>
	</g>
</g>
</svg>
