<?xml version="1.0" encoding="utf-8"?>
<!-- Generator: Adobe Illustrator 21.0.0, SVG Export Plug-In . SVG Version: 6.00 Build 0)  -->
<svg version="1.1" id="Capa_1" xmlns="http://www.w3.org/2000/svg" xmlns:xlink="http://www.w3.org/1999/xlink" x="0px" y="0px"
	 viewBox="0 0 581.3 168.7" enable-background="new 0 0 581.3 168.7" xml:space="preserve">
<g id="LOGO_BE_ORGANIZACIONAL">
	<g>
		<path fill="#FFFFFF" d="M521.9,15.8c0,5.8-3.6,10.4-9.4,11.9c7.1,1.3,11.3,6.6,11.3,13.7c0,9.3-7.9,15-20.5,15h-25.8V2.2h25
			C514.5,2.2,521.9,7.4,521.9,15.8z M509.3,18c0-3.7-2.8-5.9-7.4-5.8h-12.1v11.9h12.1C506.6,24.1,509.3,21.8,509.3,18z M511.2,39.9
			c0-4-3.6-6.4-9.3-6.3h-12.1v12.9h12.1C507.6,46.5,511.2,44.1,511.2,39.9z"/>
		<path fill="#FFFFFF" d="M569.9,39H540c1.4,5.3,5.4,8.4,10.8,8.4c4,0,7.7-1.5,10.5-4.4l6.3,6.4c-4.2,4.6-10.3,7.4-17.8,7.4
			c-13.3,0-21.8-8.5-21.8-21.2c0-12.9,8.8-21.4,21.5-21.4C564.1,14.2,570.9,23.9,569.9,39z M558.7,32c-0.2-5.5-3.7-9.1-9.2-9.1
			c-5.3,0-8.8,3.6-9.8,9.1H558.7z"/>
		<path fill="#FFFFFF" d="M470,9.2c0,4.2-2.9,7.3-7,7.3c-4,0-7-3.1-7-7.3c0-4.3,3-7.2,7-7.2C467.1,2,470,4.9,470,9.2z"/>
	</g>
	<g>
		<g>
			<path fill="#F8F8F7" d="M21.5,143.4c-5-2.8-9-6.7-11.9-11.6c-2.9-4.9-4.3-10.4-4.3-16.5c0-6.1,1.4-11.5,4.3-16.4
				c2.9-4.9,6.8-8.8,11.9-11.6c5-2.8,10.7-4.2,16.9-4.2c6.2,0,11.9,1.4,16.9,4.2c5,2.8,9,6.6,11.9,11.5c2.9,4.9,4.3,10.4,4.3,16.5
				c0,6.1-1.4,11.6-4.3,16.5c-2.9,4.9-6.8,8.8-11.9,11.5c-5,2.8-10.7,4.2-16.9,4.2C32.1,147.6,26.5,146.2,21.5,143.4z M52.8,139.7
				c4.3-2.4,7.7-5.8,10.2-10c2.5-4.3,3.7-9,3.7-14.3c0-5.3-1.2-10-3.7-14.3c-2.5-4.3-5.9-7.6-10.2-10c-4.3-2.4-9.1-3.6-14.5-3.6
				c-5.3,0-10.2,1.2-14.5,3.6c-4.3,2.4-7.7,5.8-10.2,10c-2.5,4.3-3.7,9-3.7,14.3c0,5.3,1.2,10,3.7,14.3c2.5,4.3,5.9,7.6,10.2,10
				c4.3,2.4,9.2,3.6,14.5,3.6C43.7,143.4,48.5,142.1,52.8,139.7z"/>
			<path fill="#F8F8F7" d="M90,102.1c3.1-1.8,6.8-2.8,11.3-2.8v4.5l-1.1-0.1c-5.3,0-9.4,1.7-12.4,5c-3,3.3-4.5,7.9-4.5,13.8v24.7
				h-4.5V99.7h4.4v10.4C84.6,106.6,86.9,104,90,102.1z"/>
			<path fill="#F8F8F7" d="M148.8,99.7v42.4c0,7.9-1.9,13.7-5.7,17.4c-3.8,3.8-9.6,5.6-17.3,5.6c-4.4,0-8.5-0.7-12.4-2
				c-3.9-1.3-7-3.2-9.4-5.5l2.5-3.5c2.4,2.2,5.2,3.9,8.5,5.1c3.3,1.2,6.9,1.8,10.6,1.8c6.3,0,11-1.5,14-4.5c3-3,4.5-7.6,4.5-14v-8
				c-1.9,3.5-4.6,6.1-8.1,8c-3.5,1.9-7.3,2.8-11.6,2.8c-4.4,0-8.4-1-12-3c-3.6-2-6.4-4.7-8.5-8.2c-2.1-3.5-3.1-7.5-3.1-11.9
				c0-4.4,1-8.4,3.1-11.9c2.1-3.5,4.9-6.2,8.5-8.2c3.6-1.9,7.6-2.9,12-2.9c4.4,0,8.3,1,11.8,2.9c3.5,1.9,6.2,4.7,8.1,8.2V99.7H148.8
				z M134.9,139c3-1.6,5.3-3.8,7-6.7c1.7-2.9,2.5-6.2,2.5-9.9c0-3.7-0.8-7-2.5-9.8c-1.7-2.8-4-5.1-7-6.7c-3-1.6-6.3-2.4-10-2.4
				c-3.7,0-7,0.8-10,2.4c-2.9,1.6-5.2,3.8-6.9,6.7c-1.7,2.8-2.5,6.1-2.5,9.8c0,3.7,0.8,7,2.5,9.9c1.7,2.9,4,5.1,6.9,6.7
				c2.9,1.6,6.3,2.4,10,2.4C128.6,141.4,131.9,140.6,134.9,139z"/>
			<path fill="#F8F8F7" d="M190.3,103.9c3.1,3,4.7,7.4,4.7,13.2v30.1h-4.4v-8.5c-1.5,2.8-3.7,5-6.6,6.5c-2.9,1.5-6.4,2.3-10.5,2.3
				c-5.3,0-9.4-1.2-12.5-3.7c-3.1-2.5-4.6-5.8-4.6-9.8c0-3.9,1.4-7.1,4.2-9.6c2.8-2.5,7.3-3.7,13.5-3.7h16.3v-3.8
				c0-4.4-1.2-7.8-3.6-10.1c-2.4-2.3-5.9-3.5-10.5-3.5c-3.2,0-6.2,0.5-9,1.6c-2.9,1.1-5.3,2.5-7.3,4.4l-2.3-3.3
				c2.4-2.1,5.2-3.8,8.5-5c3.3-1.2,6.8-1.8,10.5-1.8C182.7,99.4,187.2,100.9,190.3,103.9z M184.3,141.1c2.8-1.8,4.8-4.5,6.2-7.9
				v-8.9h-16.2c-4.7,0-8,0.8-10.1,2.5c-2.1,1.7-3.1,4-3.1,7c0,3.1,1.2,5.5,3.5,7.3c2.3,1.8,5.5,2.7,9.7,2.7
				C178.2,143.8,181.5,142.9,184.3,141.1z"/>
			<path fill="#F8F8F7" d="M243.8,104.6c3.5,3.5,5.2,8.4,5.2,14.9v27.7h-4.5v-27.4c0-5.3-1.3-9.4-4-12.2c-2.7-2.8-6.5-4.2-11.3-4.2
				c-5.6,0-10,1.7-13.2,5c-3.2,3.3-4.8,7.8-4.8,13.5v25.3h-4.5V99.7h4.4V110c1.6-3.3,4.1-5.9,7.3-7.8c3.2-1.9,7.1-2.8,11.5-2.8
				C235.6,99.4,240.3,101.1,243.8,104.6z"/>
			<path fill="#F8F8F7" d="M260,87.1c-0.7-0.7-1.1-1.6-1.1-2.6c0-1,0.4-1.9,1.1-2.6c0.7-0.7,1.6-1.1,2.6-1.1c1,0,1.9,0.3,2.6,1
				c0.7,0.7,1.1,1.6,1.1,2.6c0,1-0.4,1.9-1.1,2.6c-0.7,0.7-1.6,1.1-2.6,1.1C261.6,88.2,260.8,87.8,260,87.1z M260.4,99.7h4.5v47.4
				h-4.5V99.7z"/>
			<path fill="#F8F8F7" d="M308.9,143.3v3.9h-37.7v-3.1l31.3-40.4h-30.8v-3.9h36.7v3.1L277,143.3H308.9z"/>
			<path fill="#F8F8F7" d="M344.8,103.9c3.1,3,4.7,7.4,4.7,13.2v30.1h-4.4v-8.5c-1.5,2.8-3.7,5-6.6,6.5c-2.9,1.5-6.4,2.3-10.5,2.3
				c-5.3,0-9.4-1.2-12.5-3.7c-3.1-2.5-4.6-5.8-4.6-9.8c0-3.9,1.4-7.1,4.2-9.6c2.8-2.5,7.3-3.7,13.5-3.7H345v-3.8
				c0-4.4-1.2-7.8-3.6-10.1c-2.4-2.3-5.9-3.5-10.5-3.5c-3.2,0-6.2,0.5-9,1.6c-2.9,1.1-5.3,2.5-7.3,4.4l-2.3-3.3
				c2.4-2.1,5.2-3.8,8.5-5c3.3-1.2,6.8-1.8,10.5-1.8C337.2,99.4,341.7,100.9,344.8,103.9z M338.8,141.1c2.8-1.8,4.8-4.5,6.2-7.9
				v-8.9h-16.2c-4.7,0-8,0.8-10.1,2.5c-2.1,1.7-3.1,4-3.1,7c0,3.1,1.2,5.5,3.5,7.3c2.3,1.8,5.5,2.7,9.7,2.7
				C332.7,143.8,336,142.9,338.8,141.1z"/>
			<path fill="#F8F8F7" d="M367.6,144.5c-3.6-2.1-6.5-4.9-8.5-8.6c-2.1-3.7-3.1-7.8-3.1-12.4c0-4.7,1-8.8,3.1-12.5
				c2.1-3.7,4.9-6.5,8.5-8.5c3.6-2,7.8-3,12.4-3c3.8,0,7.3,0.7,10.4,2.2c3.1,1.5,5.6,3.7,7.6,6.5l-3.4,2.5c-1.7-2.4-3.8-4.1-6.3-5.3
				c-2.5-1.2-5.3-1.8-8.3-1.8c-3.7,0-7,0.8-10,2.5c-2.9,1.7-5.2,4-6.9,7c-1.7,3-2.5,6.5-2.5,10.5c0,3.9,0.8,7.4,2.5,10.5
				c1.7,3,4,5.4,6.9,7c2.9,1.7,6.3,2.5,10,2.5c3,0,5.8-0.6,8.3-1.8c2.5-1.2,4.6-3,6.3-5.3l3.4,2.5c-1.9,2.8-4.5,5-7.6,6.5
				c-3.1,1.5-6.6,2.2-10.4,2.2C375.3,147.5,371.2,146.5,367.6,144.5z"/>
			<path fill="#F8F8F7" d="M403.9,87.1c-0.7-0.7-1.1-1.6-1.1-2.6c0-1,0.4-1.9,1.1-2.6c0.7-0.7,1.6-1.1,2.6-1.1c1,0,1.9,0.3,2.6,1
				c0.7,0.7,1.1,1.6,1.1,2.6c0,1-0.4,1.9-1.1,2.6c-0.7,0.7-1.6,1.1-2.6,1.1C405.5,88.2,404.6,87.8,403.9,87.1z M404.3,99.7h4.5v47.4
				h-4.5V99.7z"/>
			<path fill="#F8F8F7" d="M427.1,144.5c-3.6-2.1-6.4-4.9-8.5-8.6c-2.1-3.7-3.1-7.8-3.1-12.4c0-4.6,1-8.7,3.1-12.4
				c2.1-3.7,4.9-6.5,8.5-8.6c3.6-2.1,7.6-3.1,12.1-3.1c4.5,0,8.5,1,12.1,3.1c3.6,2.1,6.4,4.9,8.5,8.6c2.1,3.7,3.1,7.8,3.1,12.4
				c0,4.6-1,8.7-3.1,12.4c-2.1,3.7-4.9,6.5-8.5,8.6c-3.6,2.1-7.6,3.1-12.1,3.1C434.8,147.5,430.7,146.5,427.1,144.5z M449,140.9
				c2.9-1.7,5.1-4.1,6.8-7.1c1.7-3,2.5-6.5,2.5-10.4c0-3.9-0.8-7.3-2.5-10.4c-1.7-3-3.9-5.4-6.8-7.1c-2.9-1.7-6.1-2.5-9.8-2.5
				c-3.6,0-6.9,0.8-9.8,2.5c-2.9,1.7-5.2,4.1-6.8,7.1c-1.7,3-2.5,6.5-2.5,10.4c0,3.9,0.8,7.3,2.5,10.4c1.7,3,3.9,5.4,6.8,7.1
				c2.9,1.7,6.1,2.5,9.8,2.5C442.9,143.5,446.2,142.6,449,140.9z"/>
			<path fill="#F8F8F7" d="M507.1,104.6c3.5,3.5,5.2,8.4,5.2,14.9v27.7h-4.5v-27.4c0-5.3-1.3-9.4-4-12.2c-2.7-2.8-6.5-4.2-11.3-4.2
				c-5.6,0-10,1.7-13.2,5c-3.2,3.3-4.8,7.8-4.8,13.5v25.3h-4.5V99.7h4.4V110c1.6-3.3,4.1-5.9,7.3-7.8c3.2-1.9,7.1-2.8,11.5-2.8
				C498.9,99.4,503.6,101.1,507.1,104.6z"/>
			<path fill="#F8F8F7" d="M553.2,103.9c3.1,3,4.7,7.4,4.7,13.2v30.1h-4.4v-8.5c-1.5,2.8-3.7,5-6.6,6.5c-2.9,1.5-6.4,2.3-10.5,2.3
				c-5.3,0-9.4-1.2-12.5-3.7c-3.1-2.5-4.6-5.8-4.6-9.8c0-3.9,1.4-7.1,4.2-9.6c2.8-2.5,7.3-3.7,13.5-3.7h16.3v-3.8
				c0-4.4-1.2-7.8-3.6-10.1c-2.4-2.3-5.9-3.5-10.5-3.5c-3.2,0-6.2,0.5-9,1.6c-2.9,1.1-5.3,2.5-7.3,4.4l-2.3-3.3
				c2.4-2.1,5.2-3.8,8.5-5c3.3-1.2,6.8-1.8,10.5-1.8C545.6,99.4,550.1,100.9,553.2,103.9z M547.2,141.1c2.8-1.8,4.8-4.5,6.2-7.9
				v-8.9h-16.2c-4.7,0-8,0.8-10.1,2.5c-2.1,1.7-3.1,4-3.1,7c0,3.1,1.2,5.5,3.5,7.3c2.3,1.8,5.5,2.7,9.7,2.7
				C541.1,143.8,544.4,142.9,547.2,141.1z"/>
			<path fill="#F8F8F7" d="M569.4,79.7h4.5v67.4h-4.5V79.7z"/>
		</g>
	</g>
</g>
</svg>
