<?xml version="1.0" encoding="utf-8"?>
<!-- Generator: Adobe Illustrator 21.0.0, SVG Export Plug-In . SVG Version: 6.00 Build 0)  -->
<svg version="1.1" id="Capa_1" xmlns="http://www.w3.org/2000/svg" xmlns:xlink="http://www.w3.org/1999/xlink" x="0px" y="0px"
	 viewBox="0 0 365.5 154.7" style="enable-background:new 0 0 365.5 154.7;" xml:space="preserve">
<style type="text/css">
	.st0{fill:#FFFFFF;}
	.st1{fill:#F7F7F7;}
</style>
<g id="LOGO_BE_PERSONAL_1_">
	<g>
		<path class="st0" d="M317.7,19.4c0,5.8-3.6,10.4-9.4,11.9c7.1,1.3,11.3,6.6,11.3,13.7c0,9.3-7.9,15-20.5,15h-25.8V5.8h25
			C310.2,5.8,317.7,11,317.7,19.4z M305.1,21.6c0-3.7-2.8-5.9-7.4-5.8h-12.1v11.9h12.1C302.3,27.7,305.1,25.4,305.1,21.6z M307,43.5
			c0-4-3.6-6.4-9.3-6.3h-12.1v12.9h12.1C303.4,50.1,307,47.7,307,43.5z"/>
		<path class="st0" d="M365.7,42.6h-29.9c1.4,5.3,5.4,8.4,10.8,8.4c4,0,7.7-1.5,10.5-4.4l6.3,6.4c-4.2,4.6-10.3,7.4-17.8,7.4
			c-13.3,0-21.8-8.5-21.8-21.2c0-12.9,8.8-21.4,21.5-21.4C359.9,17.8,366.7,27.4,365.7,42.6z M354.5,35.6c-0.2-5.5-3.7-9.1-9.2-9.1
			c-5.3,0-8.8,3.6-9.8,9.1H354.5z"/>
		<path class="st0" d="M265.8,12.8c0,4.2-2.9,7.3-7,7.3c-4,0-7-3.1-7-7.3c0-4.3,3-7.2,7-7.2C262.9,5.6,265.8,8.5,265.8,12.8z"/>
	</g>
	<g>
		<g>
			<path class="st1" d="M44.8,92.8c4.5,3.8,6.8,9,6.8,15.8c0,6.7-2.3,11.9-6.8,15.7C40.3,128.1,34,130,26,130H7.8v20.8H3.2V87.2H26
				C34,87.2,40.3,89.1,44.8,92.8z M41.5,121.3c3.6-3,5.4-7.2,5.4-12.7c0-5.5-1.8-9.8-5.4-12.8c-3.6-3-8.8-4.5-15.5-4.5H7.8v34.4H26
				C32.8,125.8,38,124.3,41.5,121.3z"/>
			<path class="st1" d="M103.8,128.1H63c0.1,3.7,1.1,7,2.8,9.9c1.8,2.9,4.1,5.1,7.1,6.7c3,1.6,6.4,2.4,10.1,2.4c3.1,0,6-0.6,8.6-1.7
				c2.6-1.1,4.8-2.8,6.6-5l2.6,3c-2.1,2.5-4.7,4.4-7.8,5.7c-3.1,1.3-6.5,2-10.1,2c-4.7,0-8.9-1-12.6-3.1c-3.7-2.1-6.6-4.9-8.7-8.5
				c-2.1-3.6-3.1-7.8-3.1-12.5c0-4.6,1-8.7,3-12.4c2-3.7,4.7-6.5,8.1-8.6c3.5-2.1,7.3-3.1,11.6-3.1c4.3,0,8.2,1,11.6,3
				c3.4,2,6.1,4.9,8.1,8.5c2,3.6,3,7.8,3,12.4L103.8,128.1z M72.2,109.2c-2.7,1.5-4.8,3.6-6.4,6.3c-1.6,2.7-2.5,5.7-2.8,9.1h36.4
				c-0.2-3.4-1.1-6.4-2.7-9.1c-1.6-2.7-3.8-4.8-6.5-6.3c-2.7-1.5-5.7-2.3-9-2.3C77.9,107,74.9,107.7,72.2,109.2z"/>
			<path class="st1" d="M127.3,105.7c3.1-1.8,6.8-2.8,11.3-2.8v4.5l-1.1-0.1c-5.3,0-9.4,1.7-12.4,5c-3,3.3-4.5,7.9-4.5,13.8v24.7
				h-4.5v-47.4h4.4v10.4C122,110.2,124.2,107.6,127.3,105.7z"/>
			<path class="st1" d="M150.9,149.4c-3.5-1.2-6.1-2.6-8.1-4.4l2.1-3.6c1.9,1.6,4.4,3,7.5,4.1c3.1,1.1,6.3,1.6,9.6,1.6
				c4.8,0,8.3-0.8,10.6-2.4c2.3-1.6,3.4-3.8,3.4-6.5c0-2-0.6-3.6-1.9-4.7c-1.2-1.1-2.8-2-4.6-2.5c-1.8-0.5-4.3-1.1-7.5-1.7
				c-3.8-0.7-6.8-1.4-9.1-2.2c-2.3-0.8-4.3-2.1-5.9-3.8c-1.6-1.8-2.5-4.2-2.5-7.3c0-3.8,1.6-6.9,4.7-9.3c3.1-2.5,7.6-3.7,13.3-3.7
				c3,0,6,0.4,9,1.3c3,0.8,5.4,2,7.3,3.4l-2.1,3.6c-1.9-1.4-4.2-2.5-6.6-3.2c-2.5-0.7-5-1.1-7.6-1.1c-4.4,0-7.8,0.8-10,2.5
				c-2.2,1.6-3.4,3.8-3.4,6.5c0,2.1,0.6,3.8,1.9,5c1.3,1.2,2.8,2.1,4.7,2.6c1.8,0.6,4.4,1.2,7.8,1.9c3.7,0.7,6.7,1.4,9,2.1
				c2.3,0.8,4.2,2,5.8,3.7c1.6,1.7,2.4,4,2.4,7c0,3.9-1.6,7.1-4.9,9.5c-3.3,2.4-7.9,3.5-13.8,3.5C158,151.1,154.3,150.6,150.9,149.4
				z"/>
			<path class="st1" d="M197.8,148c-3.6-2.1-6.4-4.9-8.5-8.6c-2.1-3.7-3.1-7.8-3.1-12.4c0-4.6,1-8.7,3.1-12.4
				c2.1-3.7,4.9-6.5,8.5-8.6c3.6-2.1,7.6-3.1,12.1-3.1c4.5,0,8.5,1,12.1,3.1c3.6,2.1,6.4,4.9,8.5,8.6c2.1,3.7,3.1,7.8,3.1,12.4
				c0,4.6-1,8.7-3.1,12.4c-2.1,3.7-4.9,6.5-8.5,8.6c-3.6,2.1-7.6,3.1-12.1,3.1C205.5,151.1,201.4,150.1,197.8,148z M219.7,144.5
				c2.9-1.7,5.1-4.1,6.8-7.1c1.7-3,2.5-6.5,2.5-10.4c0-3.9-0.8-7.3-2.5-10.4c-1.7-3-3.9-5.4-6.8-7.1c-2.9-1.7-6.1-2.5-9.8-2.5
				c-3.6,0-6.9,0.8-9.8,2.5c-2.9,1.7-5.2,4.1-6.8,7.1c-1.7,3-2.5,6.5-2.5,10.4c0,3.9,0.8,7.3,2.5,10.4c1.7,3,3.9,5.4,6.8,7.1
				c2.9,1.7,6.1,2.5,9.8,2.5C213.6,147,216.8,146.2,219.7,144.5z"/>
			<path class="st1" d="M283.2,108.2c3.5,3.5,5.2,8.4,5.2,14.9v27.7h-4.5v-27.4c0-5.3-1.3-9.4-4-12.2c-2.7-2.8-6.5-4.2-11.3-4.2
				c-5.6,0-10,1.7-13.2,5c-3.2,3.3-4.8,7.8-4.8,13.5v25.3h-4.5v-47.4h4.4v10.3c1.6-3.3,4.1-5.9,7.3-7.8c3.2-1.9,7.1-2.8,11.5-2.8
				C275,103,279.7,104.7,283.2,108.2z"/>
			<path class="st1" d="M334.8,107.5c3.1,3,4.7,7.4,4.7,13.2v30.1h-4.4v-8.5c-1.5,2.8-3.7,5-6.6,6.5c-2.9,1.5-6.4,2.3-10.5,2.3
				c-5.3,0-9.4-1.2-12.5-3.7c-3.1-2.5-4.6-5.8-4.6-9.8c0-3.9,1.4-7.1,4.2-9.6c2.8-2.5,7.3-3.7,13.5-3.7H335v-3.8
				c0-4.4-1.2-7.8-3.6-10.1c-2.4-2.3-5.9-3.5-10.5-3.5c-3.2,0-6.2,0.5-9,1.6c-2.9,1.1-5.3,2.5-7.3,4.4l-2.3-3.3
				c2.4-2.1,5.2-3.8,8.5-5c3.3-1.2,6.8-1.8,10.5-1.8C327.1,103,331.7,104.5,334.8,107.5z M328.8,144.7c2.8-1.8,4.8-4.5,6.2-7.9v-8.9
				h-16.2c-4.7,0-8,0.8-10.1,2.5c-2.1,1.7-3.1,4-3.1,7c0,3.1,1.2,5.5,3.5,7.3c2.3,1.8,5.5,2.7,9.7,2.7
				C322.7,147.4,326,146.5,328.8,144.7z"/>
			<path class="st1" d="M356.4,83.3h4.5v67.4h-4.5V83.3z"/>
		</g>
	</g>
</g>
</svg>
