<?xml version="1.0" encoding="utf-8"?>
<!-- Generator: Adobe Illustrator 21.0.0, SVG Export Plug-In . SVG Version: 6.00 Build 0)  -->
<svg version="1.1" id="Capa_1" xmlns="http://www.w3.org/2000/svg" xmlns:xlink="http://www.w3.org/1999/xlink" x="0px" y="0px"
	 viewBox="0 0 365.5 154.7" enable-background="new 0 0 365.5 154.7" xml:space="preserve">
<g id="LOGO_BE_PERSONAL">
	<g>
		<g>
			<path fill="#FFFFFF" stroke="#F8F8F7" stroke-miterlimit="10" d="M317.5,19.6c0,5.8-3.6,10.4-9.4,11.9
				c7.1,1.3,11.3,6.6,11.3,13.7c0,9.3-7.9,15-20.5,15h-25.8V6h25C310.1,6,317.5,11.2,317.5,19.6z M305,21.8c0-3.7-2.8-5.9-7.4-5.8
				h-12.1v11.9h12.1C302.2,27.9,305,25.6,305,21.8z M306.8,43.7c0-4-3.6-6.4-9.3-6.3h-12.1v12.9h12.1
				C303.3,50.3,306.8,47.9,306.8,43.7z"/>
			<path fill="#FFFFFF" stroke="#F8F8F7" stroke-miterlimit="10" d="M365.5,42.8h-29.9c1.4,5.3,5.4,8.4,10.8,8.4
				c4,0,7.7-1.5,10.5-4.4l6.3,6.4c-4.2,4.6-10.3,7.4-17.8,7.4c-13.3,0-21.8-8.5-21.8-21.2c0-12.9,8.8-21.4,21.5-21.4
				C359.7,18,366.5,27.7,365.5,42.8z M354.4,35.8c-0.2-5.5-3.7-9.1-9.2-9.1c-5.3,0-8.8,3.6-9.8,9.1H354.4z"/>
			<path fill="#FFFFFF" stroke="#F8F8F7" stroke-miterlimit="10" d="M265.7,13c0,4.2-2.9,7.3-7,7.3c-4,0-7-3.1-7-7.3
				c0-4.3,3-7.2,7-7.2C262.8,5.8,265.7,8.7,265.7,13z"/>
		</g>
		<g>
			<g>
				<path fill="#F8F8F7" stroke="#F8F8F7" stroke-miterlimit="10" d="M44.6,93c4.5,3.8,6.8,9,6.8,15.8c0,6.7-2.3,11.9-6.8,15.7
					c-4.5,3.8-10.8,5.7-18.8,5.7H7.7V151H3V87.4h22.8C33.8,87.4,40.1,89.3,44.6,93z M41.4,121.5c3.6-3,5.4-7.2,5.4-12.7
					c0-5.5-1.8-9.8-5.4-12.8c-3.6-3-8.8-4.5-15.5-4.5H7.7V126h18.2C32.6,126,37.8,124.5,41.4,121.5z"/>
				<path fill="#F8F8F7" d="M103.6,128.4H62.8c0.1,3.7,1.1,7,2.8,9.9c1.8,2.9,4.1,5.1,7.1,6.7c3,1.6,6.4,2.4,10.1,2.4
					c3.1,0,6-0.6,8.6-1.7c2.6-1.1,4.8-2.8,6.6-5l2.6,3c-2.1,2.5-4.7,4.4-7.8,5.7c-3.1,1.3-6.5,2-10.1,2c-4.7,0-8.9-1-12.6-3.1
					c-3.7-2.1-6.6-4.9-8.7-8.5c-2.1-3.6-3.1-7.8-3.1-12.5c0-4.6,1-8.7,3-12.4c2-3.7,4.7-6.5,8.1-8.6c3.5-2.1,7.3-3.1,11.6-3.1
					c4.3,0,8.2,1,11.6,3c3.4,2,6.1,4.9,8.1,8.5c2,3.6,3,7.8,3,12.4L103.6,128.4z M72.1,109.4c-2.7,1.5-4.8,3.6-6.4,6.3
					c-1.6,2.7-2.5,5.7-2.8,9.1h36.4c-0.2-3.4-1.1-6.4-2.7-9.1c-1.6-2.7-3.8-4.8-6.5-6.3c-2.7-1.5-5.7-2.3-9-2.3
					C77.8,107.2,74.8,107.9,72.1,109.4z"/>
				<path fill="#F8F8F7" d="M127.2,106c3.1-1.8,6.8-2.8,11.3-2.8v4.5l-1.1-0.1c-5.3,0-9.4,1.7-12.4,5c-3,3.3-4.5,7.9-4.5,13.8V151
					H116v-47.4h4.4v10.4C121.8,110.5,124.1,107.8,127.2,106z"/>
				<path fill="#F8F8F7" d="M150.7,149.6c-3.5-1.2-6.1-2.6-8.1-4.4l2.1-3.6c1.9,1.6,4.4,3,7.5,4.1c3.1,1.1,6.3,1.6,9.6,1.6
					c4.8,0,8.3-0.8,10.6-2.4c2.3-1.6,3.4-3.8,3.4-6.5c0-2-0.6-3.6-1.9-4.7c-1.2-1.1-2.8-2-4.6-2.5c-1.8-0.5-4.3-1.1-7.5-1.7
					c-3.8-0.7-6.8-1.4-9.1-2.2c-2.3-0.8-4.3-2.1-5.9-3.8c-1.6-1.8-2.5-4.2-2.5-7.3c0-3.8,1.6-6.9,4.7-9.3c3.1-2.5,7.6-3.7,13.3-3.7
					c3,0,6,0.4,9,1.3c3,0.8,5.4,2,7.3,3.4l-2.1,3.6c-1.9-1.4-4.2-2.5-6.6-3.2c-2.5-0.7-5-1.1-7.6-1.1c-4.4,0-7.8,0.8-10,2.5
					c-2.2,1.6-3.4,3.8-3.4,6.5c0,2.1,0.6,3.8,1.9,5c1.3,1.2,2.8,2.1,4.7,2.6c1.8,0.6,4.4,1.2,7.8,1.9c3.7,0.7,6.7,1.4,9,2.1
					c2.3,0.8,4.2,2,5.8,3.7c1.6,1.7,2.4,4,2.4,7c0,3.9-1.6,7.1-4.9,9.5c-3.3,2.4-7.9,3.5-13.8,3.5
					C157.8,151.3,154.2,150.8,150.7,149.6z"/>
				<path fill="#F8F8F7" d="M197.7,148.3c-3.6-2.1-6.4-4.9-8.5-8.6c-2.1-3.7-3.1-7.8-3.1-12.4c0-4.6,1-8.7,3.1-12.4
					c2.1-3.7,4.9-6.5,8.5-8.6c3.6-2.1,7.6-3.1,12.1-3.1c4.5,0,8.5,1,12.1,3.1c3.6,2.1,6.4,4.9,8.5,8.6c2.1,3.7,3.1,7.8,3.1,12.4
					c0,4.6-1,8.7-3.1,12.4c-2.1,3.7-4.9,6.5-8.5,8.6c-3.6,2.1-7.6,3.1-12.1,3.1C205.3,151.3,201.3,150.3,197.7,148.3z M219.6,144.7
					c2.9-1.7,5.1-4.1,6.8-7.1c1.7-3,2.5-6.5,2.5-10.4c0-3.9-0.8-7.3-2.5-10.4c-1.7-3-3.9-5.4-6.8-7.1c-2.9-1.7-6.1-2.5-9.8-2.5
					c-3.6,0-6.9,0.8-9.8,2.5c-2.9,1.7-5.2,4.1-6.8,7.1c-1.7,3-2.5,6.5-2.5,10.4c0,3.9,0.8,7.3,2.5,10.4c1.7,3,3.9,5.4,6.8,7.1
					c2.9,1.7,6.1,2.5,9.8,2.5C213.4,147.3,216.7,146.4,219.6,144.7z"/>
				<path fill="#F8F8F7" d="M283,108.4c3.5,3.5,5.2,8.4,5.2,14.9V151h-4.5v-27.4c0-5.3-1.3-9.4-4-12.2c-2.7-2.8-6.5-4.2-11.3-4.2
					c-5.6,0-10,1.7-13.2,5c-3.2,3.3-4.8,7.8-4.8,13.5V151h-4.5v-47.4h4.4v10.3c1.6-3.3,4.1-5.9,7.3-7.8c3.2-1.9,7.1-2.8,11.5-2.8
					C274.9,103.2,279.6,104.9,283,108.4z"/>
				<path fill="#F8F8F7" d="M334.7,107.7c3.1,3,4.7,7.4,4.7,13.2V151H335v-8.5c-1.5,2.8-3.7,5-6.6,6.5c-2.9,1.5-6.4,2.3-10.5,2.3
					c-5.3,0-9.4-1.2-12.5-3.7c-3.1-2.5-4.6-5.8-4.6-9.8c0-3.9,1.4-7.1,4.2-9.6c2.8-2.5,7.3-3.7,13.5-3.7h16.3v-3.8
					c0-4.4-1.2-7.8-3.6-10.1c-2.4-2.3-5.9-3.5-10.5-3.5c-3.2,0-6.2,0.5-9,1.6c-2.9,1.1-5.3,2.5-7.3,4.4l-2.3-3.3
					c2.4-2.1,5.2-3.8,8.5-5c3.3-1.2,6.8-1.8,10.5-1.8C327,103.2,331.5,104.7,334.7,107.7z M328.6,144.9c2.8-1.8,4.8-4.5,6.2-7.9
					v-8.9h-16.2c-4.7,0-8,0.8-10.1,2.5c-2.1,1.7-3.1,4-3.1,7c0,3.1,1.2,5.5,3.5,7.3c2.3,1.8,5.5,2.7,9.7,2.7
					C322.5,147.6,325.9,146.7,328.6,144.9z"/>
				<path fill="#F8F8F7" d="M356.3,83.5h4.5V151h-4.5V83.5z"/>
			</g>
		</g>
	</g>
	<g>
		<g>
			<path d="M317.5,19.6c0,5.8-3.6,10.4-9.4,11.9c7.1,1.3,11.3,6.6,11.3,13.7c0,9.3-7.9,15-20.5,15h-25.8V6h25
				C310.1,6,317.5,11.2,317.5,19.6z M305,21.8c0-3.7-2.8-5.9-7.4-5.8h-12.1v11.9h12.1C302.2,27.9,305,25.6,305,21.8z M306.8,43.7
				c0-4-3.6-6.4-9.3-6.3h-12.1v12.9h12.1C303.3,50.3,306.8,47.9,306.8,43.7z"/>
			<path d="M365.5,42.8h-29.9c1.4,5.3,5.4,8.4,10.8,8.4c4,0,7.7-1.5,10.5-4.4l6.3,6.4c-4.2,4.6-10.3,7.4-17.8,7.4
				c-13.3,0-21.8-8.5-21.8-21.2c0-12.9,8.8-21.4,21.5-21.4C359.7,18,366.5,27.7,365.5,42.8z M354.4,35.8c-0.2-5.5-3.7-9.1-9.2-9.1
				c-5.3,0-8.8,3.6-9.8,9.1H354.4z"/>
			<path d="M265.7,13c0,4.2-2.9,7.3-7,7.3c-4,0-7-3.1-7-7.3c0-4.3,3-7.2,7-7.2C262.8,5.8,265.7,8.7,265.7,13z"/>
		</g>
		<g>
			<g>
				<path d="M44.6,93c4.5,3.8,6.8,9,6.8,15.8c0,6.7-2.3,11.9-6.8,15.7c-4.5,3.8-10.8,5.7-18.8,5.7H7.7V151H3V87.4h22.8
					C33.8,87.4,40.1,89.3,44.6,93z M41.4,121.5c3.6-3,5.4-7.2,5.4-12.7c0-5.5-1.8-9.8-5.4-12.8c-3.6-3-8.8-4.5-15.5-4.5H7.7V126
					h18.2C32.6,126,37.8,124.5,41.4,121.5z"/>
				<path d="M103.6,128.4H62.8c0.1,3.7,1.1,7,2.8,9.9c1.8,2.9,4.1,5.1,7.1,6.7c3,1.6,6.4,2.4,10.1,2.4c3.1,0,6-0.6,8.6-1.7
					c2.6-1.1,4.8-2.8,6.6-5l2.6,3c-2.1,2.5-4.7,4.4-7.8,5.7c-3.1,1.3-6.5,2-10.1,2c-4.7,0-8.9-1-12.6-3.1c-3.7-2.1-6.6-4.9-8.7-8.5
					c-2.1-3.6-3.1-7.8-3.1-12.5c0-4.6,1-8.7,3-12.4c2-3.7,4.7-6.5,8.1-8.6c3.5-2.1,7.3-3.1,11.6-3.1c4.3,0,8.2,1,11.6,3
					c3.4,2,6.1,4.9,8.1,8.5c2,3.6,3,7.8,3,12.4L103.6,128.4z M72.1,109.4c-2.7,1.5-4.8,3.6-6.4,6.3c-1.6,2.7-2.5,5.7-2.8,9.1h36.4
					c-0.2-3.4-1.1-6.4-2.7-9.1c-1.6-2.7-3.8-4.8-6.5-6.3c-2.7-1.5-5.7-2.3-9-2.3C77.8,107.2,74.8,107.9,72.1,109.4z"/>
				<path d="M127.2,106c3.1-1.8,6.8-2.8,11.3-2.8v4.5l-1.1-0.1c-5.3,0-9.4,1.7-12.4,5c-3,3.3-4.5,7.9-4.5,13.8V151H116v-47.4h4.4
					v10.4C121.8,110.5,124.1,107.8,127.2,106z"/>
				<path d="M150.7,149.6c-3.5-1.2-6.1-2.6-8.1-4.4l2.1-3.6c1.9,1.6,4.4,3,7.5,4.1c3.1,1.1,6.3,1.6,9.6,1.6c4.8,0,8.3-0.8,10.6-2.4
					c2.3-1.6,3.4-3.8,3.4-6.5c0-2-0.6-3.6-1.9-4.7c-1.2-1.1-2.8-2-4.6-2.5c-1.8-0.5-4.3-1.1-7.5-1.7c-3.8-0.7-6.8-1.4-9.1-2.2
					c-2.3-0.8-4.3-2.1-5.9-3.8c-1.6-1.8-2.5-4.2-2.5-7.3c0-3.8,1.6-6.9,4.7-9.3c3.1-2.5,7.6-3.7,13.3-3.7c3,0,6,0.4,9,1.3
					c3,0.8,5.4,2,7.3,3.4l-2.1,3.6c-1.9-1.4-4.2-2.5-6.6-3.2c-2.5-0.7-5-1.1-7.6-1.1c-4.4,0-7.8,0.8-10,2.5
					c-2.2,1.6-3.4,3.8-3.4,6.5c0,2.1,0.6,3.8,1.9,5c1.3,1.2,2.8,2.1,4.7,2.6c1.8,0.6,4.4,1.2,7.8,1.9c3.7,0.7,6.7,1.4,9,2.1
					c2.3,0.8,4.2,2,5.8,3.7c1.6,1.7,2.4,4,2.4,7c0,3.9-1.6,7.1-4.9,9.5c-3.3,2.4-7.9,3.5-13.8,3.5
					C157.8,151.3,154.2,150.8,150.7,149.6z"/>
				<path d="M197.7,148.3c-3.6-2.1-6.4-4.9-8.5-8.6c-2.1-3.7-3.1-7.8-3.1-12.4c0-4.6,1-8.7,3.1-12.4c2.1-3.7,4.9-6.5,8.5-8.6
					c3.6-2.1,7.6-3.1,12.1-3.1c4.5,0,8.5,1,12.1,3.1c3.6,2.1,6.4,4.9,8.5,8.6c2.1,3.7,3.1,7.8,3.1,12.4c0,4.6-1,8.7-3.1,12.4
					c-2.1,3.7-4.9,6.5-8.5,8.6c-3.6,2.1-7.6,3.1-12.1,3.1C205.3,151.3,201.3,150.3,197.7,148.3z M219.6,144.7
					c2.9-1.7,5.1-4.1,6.8-7.1c1.7-3,2.5-6.5,2.5-10.4c0-3.9-0.8-7.3-2.5-10.4c-1.7-3-3.9-5.4-6.8-7.1c-2.9-1.7-6.1-2.5-9.8-2.5
					c-3.6,0-6.9,0.8-9.8,2.5c-2.9,1.7-5.2,4.1-6.8,7.1c-1.7,3-2.5,6.5-2.5,10.4c0,3.9,0.8,7.3,2.5,10.4c1.7,3,3.9,5.4,6.8,7.1
					c2.9,1.7,6.1,2.5,9.8,2.5C213.4,147.3,216.7,146.4,219.6,144.7z"/>
				<path d="M283,108.4c3.5,3.5,5.2,8.4,5.2,14.9V151h-4.5v-27.4c0-5.3-1.3-9.4-4-12.2c-2.7-2.8-6.5-4.2-11.3-4.2
					c-5.6,0-10,1.7-13.2,5c-3.2,3.3-4.8,7.8-4.8,13.5V151h-4.5v-47.4h4.4v10.3c1.6-3.3,4.1-5.9,7.3-7.8c3.2-1.9,7.1-2.8,11.5-2.8
					C274.9,103.2,279.6,104.9,283,108.4z"/>
				<path d="M334.7,107.7c3.1,3,4.7,7.4,4.7,13.2V151H335v-8.5c-1.5,2.8-3.7,5-6.6,6.5c-2.9,1.5-6.4,2.3-10.5,2.3
					c-5.3,0-9.4-1.2-12.5-3.7c-3.1-2.5-4.6-5.8-4.6-9.8c0-3.9,1.4-7.1,4.2-9.6c2.8-2.5,7.3-3.7,13.5-3.7h16.3v-3.8
					c0-4.4-1.2-7.8-3.6-10.1c-2.4-2.3-5.9-3.5-10.5-3.5c-3.2,0-6.2,0.5-9,1.6c-2.9,1.1-5.3,2.5-7.3,4.4l-2.3-3.3
					c2.4-2.1,5.2-3.8,8.5-5c3.3-1.2,6.8-1.8,10.5-1.8C327,103.2,331.5,104.7,334.7,107.7z M328.6,144.9c2.8-1.8,4.8-4.5,6.2-7.9
					v-8.9h-16.2c-4.7,0-8,0.8-10.1,2.5c-2.1,1.7-3.1,4-3.1,7c0,3.1,1.2,5.5,3.5,7.3c2.3,1.8,5.5,2.7,9.7,2.7
					C322.5,147.6,325.9,146.7,328.6,144.9z"/>
				<path d="M356.3,83.5h4.5V151h-4.5V83.5z"/>
			</g>
		</g>
	</g>
	<g>
		<g>
			<path d="M317.5,19.6c0,5.8-3.6,10.4-9.4,11.9c7.1,1.3,11.3,6.6,11.3,13.7c0,9.3-7.9,15-20.5,15h-25.8V6h25
				C310.1,6,317.5,11.2,317.5,19.6z M305,21.8c0-3.7-2.8-5.9-7.4-5.8h-12.1v11.9h12.1C302.2,27.9,305,25.6,305,21.8z M306.8,43.7
				c0-4-3.6-6.4-9.3-6.3h-12.1v12.9h12.1C303.3,50.3,306.8,47.9,306.8,43.7z"/>
			<path d="M365.5,42.8h-29.9c1.4,5.3,5.4,8.4,10.8,8.4c4,0,7.7-1.5,10.5-4.4l6.3,6.4c-4.2,4.6-10.3,7.4-17.8,7.4
				c-13.3,0-21.8-8.5-21.8-21.2c0-12.9,8.8-21.4,21.5-21.4C359.7,18,366.5,27.7,365.5,42.8z M354.4,35.8c-0.2-5.5-3.7-9.1-9.2-9.1
				c-5.3,0-8.8,3.6-9.8,9.1H354.4z"/>
			<path d="M265.7,13c0,4.2-2.9,7.3-7,7.3c-4,0-7-3.1-7-7.3c0-4.3,3-7.2,7-7.2C262.8,5.8,265.7,8.7,265.7,13z"/>
		</g>
		<g>
			<g>
				<path d="M44.6,93c4.5,3.8,6.8,9,6.8,15.8c0,6.7-2.3,11.9-6.8,15.7c-4.5,3.8-10.8,5.7-18.8,5.7H7.7V151H3V87.4h22.8
					C33.8,87.4,40.1,89.3,44.6,93z M41.4,121.5c3.6-3,5.4-7.2,5.4-12.7c0-5.5-1.8-9.8-5.4-12.8c-3.6-3-8.8-4.5-15.5-4.5H7.7V126
					h18.2C32.6,126,37.8,124.5,41.4,121.5z"/>
				<path d="M103.6,128.4H62.8c0.1,3.7,1.1,7,2.8,9.9c1.8,2.9,4.1,5.1,7.1,6.7c3,1.6,6.4,2.4,10.1,2.4c3.1,0,6-0.6,8.6-1.7
					c2.6-1.1,4.8-2.8,6.6-5l2.6,3c-2.1,2.5-4.7,4.4-7.8,5.7c-3.1,1.3-6.5,2-10.1,2c-4.7,0-8.9-1-12.6-3.1c-3.7-2.1-6.6-4.9-8.7-8.5
					c-2.1-3.6-3.1-7.8-3.1-12.5c0-4.6,1-8.7,3-12.4c2-3.7,4.7-6.5,8.1-8.6c3.5-2.1,7.3-3.1,11.6-3.1c4.3,0,8.2,1,11.6,3
					c3.4,2,6.1,4.9,8.1,8.5c2,3.6,3,7.8,3,12.4L103.6,128.4z M72.1,109.4c-2.7,1.5-4.8,3.6-6.4,6.3c-1.6,2.7-2.5,5.7-2.8,9.1h36.4
					c-0.2-3.4-1.1-6.4-2.7-9.1c-1.6-2.7-3.8-4.8-6.5-6.3c-2.7-1.5-5.7-2.3-9-2.3C77.8,107.2,74.8,107.9,72.1,109.4z"/>
				<path d="M127.2,106c3.1-1.8,6.8-2.8,11.3-2.8v4.5l-1.1-0.1c-5.3,0-9.4,1.7-12.4,5c-3,3.3-4.5,7.9-4.5,13.8V151H116v-47.4h4.4
					v10.4C121.8,110.5,124.1,107.8,127.2,106z"/>
				<path d="M150.7,149.6c-3.5-1.2-6.1-2.6-8.1-4.4l2.1-3.6c1.9,1.6,4.4,3,7.5,4.1c3.1,1.1,6.3,1.6,9.6,1.6c4.8,0,8.3-0.8,10.6-2.4
					c2.3-1.6,3.4-3.8,3.4-6.5c0-2-0.6-3.6-1.9-4.7c-1.2-1.1-2.8-2-4.6-2.5c-1.8-0.5-4.3-1.1-7.5-1.7c-3.8-0.7-6.8-1.4-9.1-2.2
					c-2.3-0.8-4.3-2.1-5.9-3.8c-1.6-1.8-2.5-4.2-2.5-7.3c0-3.8,1.6-6.9,4.7-9.3c3.1-2.5,7.6-3.7,13.3-3.7c3,0,6,0.4,9,1.3
					c3,0.8,5.4,2,7.3,3.4l-2.1,3.6c-1.9-1.4-4.2-2.5-6.6-3.2c-2.5-0.7-5-1.1-7.6-1.1c-4.4,0-7.8,0.8-10,2.5
					c-2.2,1.6-3.4,3.8-3.4,6.5c0,2.1,0.6,3.8,1.9,5c1.3,1.2,2.8,2.1,4.7,2.6c1.8,0.6,4.4,1.2,7.8,1.9c3.7,0.7,6.7,1.4,9,2.1
					c2.3,0.8,4.2,2,5.8,3.7c1.6,1.7,2.4,4,2.4,7c0,3.9-1.6,7.1-4.9,9.5c-3.3,2.4-7.9,3.5-13.8,3.5
					C157.8,151.3,154.2,150.8,150.7,149.6z"/>
				<path d="M197.7,148.3c-3.6-2.1-6.4-4.9-8.5-8.6c-2.1-3.7-3.1-7.8-3.1-12.4c0-4.6,1-8.7,3.1-12.4c2.1-3.7,4.9-6.5,8.5-8.6
					c3.6-2.1,7.6-3.1,12.1-3.1c4.5,0,8.5,1,12.1,3.1c3.6,2.1,6.4,4.9,8.5,8.6c2.1,3.7,3.1,7.8,3.1,12.4c0,4.6-1,8.7-3.1,12.4
					c-2.1,3.7-4.9,6.5-8.5,8.6c-3.6,2.1-7.6,3.1-12.1,3.1C205.3,151.3,201.3,150.3,197.7,148.3z M219.6,144.7
					c2.9-1.7,5.1-4.1,6.8-7.1c1.7-3,2.5-6.5,2.5-10.4c0-3.9-0.8-7.3-2.5-10.4c-1.7-3-3.9-5.4-6.8-7.1c-2.9-1.7-6.1-2.5-9.8-2.5
					c-3.6,0-6.9,0.8-9.8,2.5c-2.9,1.7-5.2,4.1-6.8,7.1c-1.7,3-2.5,6.5-2.5,10.4c0,3.9,0.8,7.3,2.5,10.4c1.7,3,3.9,5.4,6.8,7.1
					c2.9,1.7,6.1,2.5,9.8,2.5C213.4,147.3,216.7,146.4,219.6,144.7z"/>
				<path d="M283,108.4c3.5,3.5,5.2,8.4,5.2,14.9V151h-4.5v-27.4c0-5.3-1.3-9.4-4-12.2c-2.7-2.8-6.5-4.2-11.3-4.2
					c-5.6,0-10,1.7-13.2,5c-3.2,3.3-4.8,7.8-4.8,13.5V151h-4.5v-47.4h4.4v10.3c1.6-3.3,4.1-5.9,7.3-7.8c3.2-1.9,7.1-2.8,11.5-2.8
					C274.9,103.2,279.6,104.9,283,108.4z"/>
				<path d="M334.7,107.7c3.1,3,4.7,7.4,4.7,13.2V151H335v-8.5c-1.5,2.8-3.7,5-6.6,6.5c-2.9,1.5-6.4,2.3-10.5,2.3
					c-5.3,0-9.4-1.2-12.5-3.7c-3.1-2.5-4.6-5.8-4.6-9.8c0-3.9,1.4-7.1,4.2-9.6c2.8-2.5,7.3-3.7,13.5-3.7h16.3v-3.8
					c0-4.4-1.2-7.8-3.6-10.1c-2.4-2.3-5.9-3.5-10.5-3.5c-3.2,0-6.2,0.5-9,1.6c-2.9,1.1-5.3,2.5-7.3,4.4l-2.3-3.3
					c2.4-2.1,5.2-3.8,8.5-5c3.3-1.2,6.8-1.8,10.5-1.8C327,103.2,331.5,104.7,334.7,107.7z M328.6,144.9c2.8-1.8,4.8-4.5,6.2-7.9
					v-8.9h-16.2c-4.7,0-8,0.8-10.1,2.5c-2.1,1.7-3.1,4-3.1,7c0,3.1,1.2,5.5,3.5,7.3c2.3,1.8,5.5,2.7,9.7,2.7
					C322.5,147.6,325.9,146.7,328.6,144.9z"/>
				<path d="M356.3,83.5h4.5V151h-4.5V83.5z"/>
			</g>
		</g>
	</g>
	<g>
		<g>
			<path d="M317.5,19.6c0,5.8-3.6,10.4-9.4,11.9c7.1,1.3,11.3,6.6,11.3,13.7c0,9.3-7.9,15-20.5,15h-25.8V6h25
				C310.1,6,317.5,11.2,317.5,19.6z M305,21.8c0-3.7-2.8-5.9-7.4-5.8h-12.1v11.9h12.1C302.2,27.9,305,25.6,305,21.8z M306.8,43.7
				c0-4-3.6-6.4-9.3-6.3h-12.1v12.9h12.1C303.3,50.3,306.8,47.9,306.8,43.7z"/>
			<path d="M365.5,42.8h-29.9c1.4,5.3,5.4,8.4,10.8,8.4c4,0,7.7-1.5,10.5-4.4l6.3,6.4c-4.2,4.6-10.3,7.4-17.8,7.4
				c-13.3,0-21.8-8.5-21.8-21.2c0-12.9,8.8-21.4,21.5-21.4C359.7,18,366.5,27.7,365.5,42.8z M354.4,35.8c-0.2-5.5-3.7-9.1-9.2-9.1
				c-5.3,0-8.8,3.6-9.8,9.1H354.4z"/>
			<path d="M265.7,13c0,4.2-2.9,7.3-7,7.3c-4,0-7-3.1-7-7.3c0-4.3,3-7.2,7-7.2C262.8,5.8,265.7,8.7,265.7,13z"/>
		</g>
		<g>
			<g>
				<path d="M44.6,93c4.5,3.8,6.8,9,6.8,15.8c0,6.7-2.3,11.9-6.8,15.7c-4.5,3.8-10.8,5.7-18.8,5.7H7.7V151H3V87.4h22.8
					C33.8,87.4,40.1,89.3,44.6,93z M41.4,121.5c3.6-3,5.4-7.2,5.4-12.7c0-5.5-1.8-9.8-5.4-12.8c-3.6-3-8.8-4.5-15.5-4.5H7.7V126
					h18.2C32.6,126,37.8,124.5,41.4,121.5z"/>
				<path d="M103.6,128.4H62.8c0.1,3.7,1.1,7,2.8,9.9c1.8,2.9,4.1,5.1,7.1,6.7c3,1.6,6.4,2.4,10.1,2.4c3.1,0,6-0.6,8.6-1.7
					c2.6-1.1,4.8-2.8,6.6-5l2.6,3c-2.1,2.5-4.7,4.4-7.8,5.7c-3.1,1.3-6.5,2-10.1,2c-4.7,0-8.9-1-12.6-3.1c-3.7-2.1-6.6-4.9-8.7-8.5
					c-2.1-3.6-3.1-7.8-3.1-12.5c0-4.6,1-8.7,3-12.4c2-3.7,4.7-6.5,8.1-8.6c3.5-2.1,7.3-3.1,11.6-3.1c4.3,0,8.2,1,11.6,3
					c3.4,2,6.1,4.9,8.1,8.5c2,3.6,3,7.8,3,12.4L103.6,128.4z M72.1,109.4c-2.7,1.5-4.8,3.6-6.4,6.3c-1.6,2.7-2.5,5.7-2.8,9.1h36.4
					c-0.2-3.4-1.1-6.4-2.7-9.1c-1.6-2.7-3.8-4.8-6.5-6.3c-2.7-1.5-5.7-2.3-9-2.3C77.8,107.2,74.8,107.9,72.1,109.4z"/>
				<path d="M127.2,106c3.1-1.8,6.8-2.8,11.3-2.8v4.5l-1.1-0.1c-5.3,0-9.4,1.7-12.4,5c-3,3.3-4.5,7.9-4.5,13.8V151H116v-47.4h4.4
					v10.4C121.8,110.5,124.1,107.8,127.2,106z"/>
				<path d="M150.7,149.6c-3.5-1.2-6.1-2.6-8.1-4.4l2.1-3.6c1.9,1.6,4.4,3,7.5,4.1c3.1,1.1,6.3,1.6,9.6,1.6c4.8,0,8.3-0.8,10.6-2.4
					c2.3-1.6,3.4-3.8,3.4-6.5c0-2-0.6-3.6-1.9-4.7c-1.2-1.1-2.8-2-4.6-2.5c-1.8-0.5-4.3-1.1-7.5-1.7c-3.8-0.7-6.8-1.4-9.1-2.2
					c-2.3-0.8-4.3-2.1-5.9-3.8c-1.6-1.8-2.5-4.2-2.5-7.3c0-3.8,1.6-6.9,4.7-9.3c3.1-2.5,7.6-3.7,13.3-3.7c3,0,6,0.4,9,1.3
					c3,0.8,5.4,2,7.3,3.4l-2.1,3.6c-1.9-1.4-4.2-2.5-6.6-3.2c-2.5-0.7-5-1.1-7.6-1.1c-4.4,0-7.8,0.8-10,2.5
					c-2.2,1.6-3.4,3.8-3.4,6.5c0,2.1,0.6,3.8,1.9,5c1.3,1.2,2.8,2.1,4.7,2.6c1.8,0.6,4.4,1.2,7.8,1.9c3.7,0.7,6.7,1.4,9,2.1
					c2.3,0.8,4.2,2,5.8,3.7c1.6,1.7,2.4,4,2.4,7c0,3.9-1.6,7.1-4.9,9.5c-3.3,2.4-7.9,3.5-13.8,3.5
					C157.8,151.3,154.2,150.8,150.7,149.6z"/>
				<path d="M197.7,148.3c-3.6-2.1-6.4-4.9-8.5-8.6c-2.1-3.7-3.1-7.8-3.1-12.4c0-4.6,1-8.7,3.1-12.4c2.1-3.7,4.9-6.5,8.5-8.6
					c3.6-2.1,7.6-3.1,12.1-3.1c4.5,0,8.5,1,12.1,3.1c3.6,2.1,6.4,4.9,8.5,8.6c2.1,3.7,3.1,7.8,3.1,12.4c0,4.6-1,8.7-3.1,12.4
					c-2.1,3.7-4.9,6.5-8.5,8.6c-3.6,2.1-7.6,3.1-12.1,3.1C205.3,151.3,201.3,150.3,197.7,148.3z M219.6,144.7
					c2.9-1.7,5.1-4.1,6.8-7.1c1.7-3,2.5-6.5,2.5-10.4c0-3.9-0.8-7.3-2.5-10.4c-1.7-3-3.9-5.4-6.8-7.1c-2.9-1.7-6.1-2.5-9.8-2.5
					c-3.6,0-6.9,0.8-9.8,2.5c-2.9,1.7-5.2,4.1-6.8,7.1c-1.7,3-2.5,6.5-2.5,10.4c0,3.9,0.8,7.3,2.5,10.4c1.7,3,3.9,5.4,6.8,7.1
					c2.9,1.7,6.1,2.5,9.8,2.5C213.4,147.3,216.7,146.4,219.6,144.7z"/>
				<path d="M283,108.4c3.5,3.5,5.2,8.4,5.2,14.9V151h-4.5v-27.4c0-5.3-1.3-9.4-4-12.2c-2.7-2.8-6.5-4.2-11.3-4.2
					c-5.6,0-10,1.7-13.2,5c-3.2,3.3-4.8,7.8-4.8,13.5V151h-4.5v-47.4h4.4v10.3c1.6-3.3,4.1-5.9,7.3-7.8c3.2-1.9,7.1-2.8,11.5-2.8
					C274.9,103.2,279.6,104.9,283,108.4z"/>
				<path d="M334.7,107.7c3.1,3,4.7,7.4,4.7,13.2V151H335v-8.5c-1.5,2.8-3.7,5-6.6,6.5c-2.9,1.5-6.4,2.3-10.5,2.3
					c-5.3,0-9.4-1.2-12.5-3.7c-3.1-2.5-4.6-5.8-4.6-9.8c0-3.9,1.4-7.1,4.2-9.6c2.8-2.5,7.3-3.7,13.5-3.7h16.3v-3.8
					c0-4.4-1.2-7.8-3.6-10.1c-2.4-2.3-5.9-3.5-10.5-3.5c-3.2,0-6.2,0.5-9,1.6c-2.9,1.1-5.3,2.5-7.3,4.4l-2.3-3.3
					c2.4-2.1,5.2-3.8,8.5-5c3.3-1.2,6.8-1.8,10.5-1.8C327,103.2,331.5,104.7,334.7,107.7z M328.6,144.9c2.8-1.8,4.8-4.5,6.2-7.9
					v-8.9h-16.2c-4.7,0-8,0.8-10.1,2.5c-2.1,1.7-3.1,4-3.1,7c0,3.1,1.2,5.5,3.5,7.3c2.3,1.8,5.5,2.7,9.7,2.7
					C322.5,147.6,325.9,146.7,328.6,144.9z"/>
				<path d="M356.3,83.5h4.5V151h-4.5V83.5z"/>
			</g>
		</g>
	</g>
	<g>
		<g>
			<path d="M317.5,19.6c0,5.8-3.6,10.4-9.4,11.9c7.1,1.3,11.3,6.6,11.3,13.7c0,9.3-7.9,15-20.5,15h-25.8V6h25
				C310.1,6,317.5,11.2,317.5,19.6z M305,21.8c0-3.7-2.8-5.9-7.4-5.8h-12.1v11.9h12.1C302.2,27.9,305,25.6,305,21.8z M306.8,43.7
				c0-4-3.6-6.4-9.3-6.3h-12.1v12.9h12.1C303.3,50.3,306.8,47.9,306.8,43.7z"/>
			<path d="M365.5,42.8h-29.9c1.4,5.3,5.4,8.4,10.8,8.4c4,0,7.7-1.5,10.5-4.4l6.3,6.4c-4.2,4.6-10.3,7.4-17.8,7.4
				c-13.3,0-21.8-8.5-21.8-21.2c0-12.9,8.8-21.4,21.5-21.4C359.7,18,366.5,27.7,365.5,42.8z M354.4,35.8c-0.2-5.5-3.7-9.1-9.2-9.1
				c-5.3,0-8.8,3.6-9.8,9.1H354.4z"/>
			<path d="M265.7,13c0,4.2-2.9,7.3-7,7.3c-4,0-7-3.1-7-7.3c0-4.3,3-7.2,7-7.2C262.8,5.8,265.7,8.7,265.7,13z"/>
		</g>
		<g>
			<g>
				<path d="M44.6,93c4.5,3.8,6.8,9,6.8,15.8c0,6.7-2.3,11.9-6.8,15.7c-4.5,3.8-10.8,5.7-18.8,5.7H7.7V151H3V87.4h22.8
					C33.8,87.4,40.1,89.3,44.6,93z M41.4,121.5c3.6-3,5.4-7.2,5.4-12.7c0-5.5-1.8-9.8-5.4-12.8c-3.6-3-8.8-4.5-15.5-4.5H7.7V126
					h18.2C32.6,126,37.8,124.5,41.4,121.5z"/>
				<path d="M103.6,128.4H62.8c0.1,3.7,1.1,7,2.8,9.9c1.8,2.9,4.1,5.1,7.1,6.7c3,1.6,6.4,2.4,10.1,2.4c3.1,0,6-0.6,8.6-1.7
					c2.6-1.1,4.8-2.8,6.6-5l2.6,3c-2.1,2.5-4.7,4.4-7.8,5.7c-3.1,1.3-6.5,2-10.1,2c-4.7,0-8.9-1-12.6-3.1c-3.7-2.1-6.6-4.9-8.7-8.5
					c-2.1-3.6-3.1-7.8-3.1-12.5c0-4.6,1-8.7,3-12.4c2-3.7,4.7-6.5,8.1-8.6c3.5-2.1,7.3-3.1,11.6-3.1c4.3,0,8.2,1,11.6,3
					c3.4,2,6.1,4.9,8.1,8.5c2,3.6,3,7.8,3,12.4L103.6,128.4z M72.1,109.4c-2.7,1.5-4.8,3.6-6.4,6.3c-1.6,2.7-2.5,5.7-2.8,9.1h36.4
					c-0.2-3.4-1.1-6.4-2.7-9.1c-1.6-2.7-3.8-4.8-6.5-6.3c-2.7-1.5-5.7-2.3-9-2.3C77.8,107.2,74.8,107.9,72.1,109.4z"/>
				<path d="M127.2,106c3.1-1.8,6.8-2.8,11.3-2.8v4.5l-1.1-0.1c-5.3,0-9.4,1.7-12.4,5c-3,3.3-4.5,7.9-4.5,13.8V151H116v-47.4h4.4
					v10.4C121.8,110.5,124.1,107.8,127.2,106z"/>
				<path d="M150.7,149.6c-3.5-1.2-6.1-2.6-8.1-4.4l2.1-3.6c1.9,1.6,4.4,3,7.5,4.1c3.1,1.1,6.3,1.6,9.6,1.6c4.8,0,8.3-0.8,10.6-2.4
					c2.3-1.6,3.4-3.8,3.4-6.5c0-2-0.6-3.6-1.9-4.7c-1.2-1.1-2.8-2-4.6-2.5c-1.8-0.5-4.3-1.1-7.5-1.7c-3.8-0.7-6.8-1.4-9.1-2.2
					c-2.3-0.8-4.3-2.1-5.9-3.8c-1.6-1.8-2.5-4.2-2.5-7.3c0-3.8,1.6-6.9,4.7-9.3c3.1-2.5,7.6-3.7,13.3-3.7c3,0,6,0.4,9,1.3
					c3,0.8,5.4,2,7.3,3.4l-2.1,3.6c-1.9-1.4-4.2-2.5-6.6-3.2c-2.5-0.7-5-1.1-7.6-1.1c-4.4,0-7.8,0.8-10,2.5
					c-2.2,1.6-3.4,3.8-3.4,6.5c0,2.1,0.6,3.8,1.9,5c1.3,1.2,2.8,2.1,4.7,2.6c1.8,0.6,4.4,1.2,7.8,1.9c3.7,0.7,6.7,1.4,9,2.1
					c2.3,0.8,4.2,2,5.8,3.7c1.6,1.7,2.4,4,2.4,7c0,3.9-1.6,7.1-4.9,9.5c-3.3,2.4-7.9,3.5-13.8,3.5
					C157.8,151.3,154.2,150.8,150.7,149.6z"/>
				<path d="M197.7,148.3c-3.6-2.1-6.4-4.9-8.5-8.6c-2.1-3.7-3.1-7.8-3.1-12.4c0-4.6,1-8.7,3.1-12.4c2.1-3.7,4.9-6.5,8.5-8.6
					c3.6-2.1,7.6-3.1,12.1-3.1c4.5,0,8.5,1,12.1,3.1c3.6,2.1,6.4,4.9,8.5,8.6c2.1,3.7,3.1,7.8,3.1,12.4c0,4.6-1,8.7-3.1,12.4
					c-2.1,3.7-4.9,6.5-8.5,8.6c-3.6,2.1-7.6,3.1-12.1,3.1C205.3,151.3,201.3,150.3,197.7,148.3z M219.6,144.7
					c2.9-1.7,5.1-4.1,6.8-7.1c1.7-3,2.5-6.5,2.5-10.4c0-3.9-0.8-7.3-2.5-10.4c-1.7-3-3.9-5.4-6.8-7.1c-2.9-1.7-6.1-2.5-9.8-2.5
					c-3.6,0-6.9,0.8-9.8,2.5c-2.9,1.7-5.2,4.1-6.8,7.1c-1.7,3-2.5,6.5-2.5,10.4c0,3.9,0.8,7.3,2.5,10.4c1.7,3,3.9,5.4,6.8,7.1
					c2.9,1.7,6.1,2.5,9.8,2.5C213.4,147.3,216.7,146.4,219.6,144.7z"/>
				<path d="M283,108.4c3.5,3.5,5.2,8.4,5.2,14.9V151h-4.5v-27.4c0-5.3-1.3-9.4-4-12.2c-2.7-2.8-6.5-4.2-11.3-4.2
					c-5.6,0-10,1.7-13.2,5c-3.2,3.3-4.8,7.8-4.8,13.5V151h-4.5v-47.4h4.4v10.3c1.6-3.3,4.1-5.9,7.3-7.8c3.2-1.9,7.1-2.8,11.5-2.8
					C274.9,103.2,279.6,104.9,283,108.4z"/>
				<path d="M334.7,107.7c3.1,3,4.7,7.4,4.7,13.2V151H335v-8.5c-1.5,2.8-3.7,5-6.6,6.5c-2.9,1.5-6.4,2.3-10.5,2.3
					c-5.3,0-9.4-1.2-12.5-3.7c-3.1-2.5-4.6-5.8-4.6-9.8c0-3.9,1.4-7.1,4.2-9.6c2.8-2.5,7.3-3.7,13.5-3.7h16.3v-3.8
					c0-4.4-1.2-7.8-3.6-10.1c-2.4-2.3-5.9-3.5-10.5-3.5c-3.2,0-6.2,0.5-9,1.6c-2.9,1.1-5.3,2.5-7.3,4.4l-2.3-3.3
					c2.4-2.1,5.2-3.8,8.5-5c3.3-1.2,6.8-1.8,10.5-1.8C327,103.2,331.5,104.7,334.7,107.7z M328.6,144.9c2.8-1.8,4.8-4.5,6.2-7.9
					v-8.9h-16.2c-4.7,0-8,0.8-10.1,2.5c-2.1,1.7-3.1,4-3.1,7c0,3.1,1.2,5.5,3.5,7.3c2.3,1.8,5.5,2.7,9.7,2.7
					C322.5,147.6,325.9,146.7,328.6,144.9z"/>
				<path d="M356.3,83.5h4.5V151h-4.5V83.5z"/>
			</g>
		</g>
	</g>
	<g>
		<g>
			<path fill="#FFFFFF" d="M317.5,19.6c0,5.8-3.6,10.4-9.4,11.9c7.1,1.3,11.3,6.6,11.3,13.7c0,9.3-7.9,15-20.5,15h-25.8V6h25
				C310.1,6,317.5,11.2,317.5,19.6z M305,21.8c0-3.7-2.8-5.9-7.4-5.8h-12.1v11.9h12.1C302.2,27.9,305,25.6,305,21.8z M306.8,43.7
				c0-4-3.6-6.4-9.3-6.3h-12.1v12.9h12.1C303.3,50.3,306.8,47.9,306.8,43.7z"/>
			<path fill="#FFFFFF" d="M365.5,42.8h-29.9c1.4,5.3,5.4,8.4,10.8,8.4c4,0,7.7-1.5,10.5-4.4l6.3,6.4c-4.2,4.6-10.3,7.4-17.8,7.4
				c-13.3,0-21.8-8.5-21.8-21.2c0-12.9,8.8-21.4,21.5-21.4C359.7,18,366.5,27.7,365.5,42.8z M354.4,35.8c-0.2-5.5-3.7-9.1-9.2-9.1
				c-5.3,0-8.8,3.6-9.8,9.1H354.4z"/>
			<path fill="#FFFFFF" d="M265.7,13c0,4.2-2.9,7.3-7,7.3c-4,0-7-3.1-7-7.3c0-4.3,3-7.2,7-7.2C262.8,5.8,265.7,8.7,265.7,13z"/>
		</g>
		<g>
			<g>
				<path fill="#FFFFFF" d="M44.6,93c4.5,3.8,6.8,9,6.8,15.8c0,6.7-2.3,11.9-6.8,15.7c-4.5,3.8-10.8,5.7-18.8,5.7H7.7V151H3V87.4
					h22.8C33.8,87.4,40.1,89.3,44.6,93z M41.4,121.5c3.6-3,5.4-7.2,5.4-12.7c0-5.5-1.8-9.8-5.4-12.8c-3.6-3-8.8-4.5-15.5-4.5H7.7
					V126h18.2C32.6,126,37.8,124.5,41.4,121.5z"/>
				<path fill="#FFFFFF" d="M103.6,128.4H62.8c0.1,3.7,1.1,7,2.8,9.9c1.8,2.9,4.1,5.1,7.1,6.7c3,1.6,6.4,2.4,10.1,2.4
					c3.1,0,6-0.6,8.6-1.7c2.6-1.1,4.8-2.8,6.6-5l2.6,3c-2.1,2.5-4.7,4.4-7.8,5.7c-3.1,1.3-6.5,2-10.1,2c-4.7,0-8.9-1-12.6-3.1
					c-3.7-2.1-6.6-4.9-8.7-8.5c-2.1-3.6-3.1-7.8-3.1-12.5c0-4.6,1-8.7,3-12.4c2-3.7,4.7-6.5,8.1-8.6c3.5-2.1,7.3-3.1,11.6-3.1
					c4.3,0,8.2,1,11.6,3c3.4,2,6.1,4.9,8.1,8.5c2,3.6,3,7.8,3,12.4L103.6,128.4z M72.1,109.4c-2.7,1.5-4.8,3.6-6.4,6.3
					c-1.6,2.7-2.5,5.7-2.8,9.1h36.4c-0.2-3.4-1.1-6.4-2.7-9.1c-1.6-2.7-3.8-4.8-6.5-6.3c-2.7-1.5-5.7-2.3-9-2.3
					C77.8,107.2,74.8,107.9,72.1,109.4z"/>
				<path fill="#FFFFFF" d="M127.2,106c3.1-1.8,6.8-2.8,11.3-2.8v4.5l-1.1-0.1c-5.3,0-9.4,1.7-12.4,5c-3,3.3-4.5,7.9-4.5,13.8V151
					H116v-47.4h4.4v10.4C121.8,110.5,124.1,107.8,127.2,106z"/>
				<path fill="#FFFFFF" d="M150.7,149.6c-3.5-1.2-6.1-2.6-8.1-4.4l2.1-3.6c1.9,1.6,4.4,3,7.5,4.1c3.1,1.1,6.3,1.6,9.6,1.6
					c4.8,0,8.3-0.8,10.6-2.4c2.3-1.6,3.4-3.8,3.4-6.5c0-2-0.6-3.6-1.9-4.7c-1.2-1.1-2.8-2-4.6-2.5c-1.8-0.5-4.3-1.1-7.5-1.7
					c-3.8-0.7-6.8-1.4-9.1-2.2c-2.3-0.8-4.3-2.1-5.9-3.8c-1.6-1.8-2.5-4.2-2.5-7.3c0-3.8,1.6-6.9,4.7-9.3c3.1-2.5,7.6-3.7,13.3-3.7
					c3,0,6,0.4,9,1.3c3,0.8,5.4,2,7.3,3.4l-2.1,3.6c-1.9-1.4-4.2-2.5-6.6-3.2c-2.5-0.7-5-1.1-7.6-1.1c-4.4,0-7.8,0.8-10,2.5
					c-2.2,1.6-3.4,3.8-3.4,6.5c0,2.1,0.6,3.8,1.9,5c1.3,1.2,2.8,2.1,4.7,2.6c1.8,0.6,4.4,1.2,7.8,1.9c3.7,0.7,6.7,1.4,9,2.1
					c2.3,0.8,4.2,2,5.8,3.7c1.6,1.7,2.4,4,2.4,7c0,3.9-1.6,7.1-4.9,9.5c-3.3,2.4-7.9,3.5-13.8,3.5
					C157.8,151.3,154.2,150.8,150.7,149.6z"/>
				<path fill="#FFFFFF" d="M197.7,148.3c-3.6-2.1-6.4-4.9-8.5-8.6c-2.1-3.7-3.1-7.8-3.1-12.4c0-4.6,1-8.7,3.1-12.4
					c2.1-3.7,4.9-6.5,8.5-8.6c3.6-2.1,7.6-3.1,12.1-3.1c4.5,0,8.5,1,12.1,3.1c3.6,2.1,6.4,4.9,8.5,8.6c2.1,3.7,3.1,7.8,3.1,12.4
					c0,4.6-1,8.7-3.1,12.4c-2.1,3.7-4.9,6.5-8.5,8.6c-3.6,2.1-7.6,3.1-12.1,3.1C205.3,151.3,201.3,150.3,197.7,148.3z M219.6,144.7
					c2.9-1.7,5.1-4.1,6.8-7.1c1.7-3,2.5-6.5,2.5-10.4c0-3.9-0.8-7.3-2.5-10.4c-1.7-3-3.9-5.4-6.8-7.1c-2.9-1.7-6.1-2.5-9.8-2.5
					c-3.6,0-6.9,0.8-9.8,2.5c-2.9,1.7-5.2,4.1-6.8,7.1c-1.7,3-2.5,6.5-2.5,10.4c0,3.9,0.8,7.3,2.5,10.4c1.7,3,3.9,5.4,6.8,7.1
					c2.9,1.7,6.1,2.5,9.8,2.5C213.4,147.3,216.7,146.4,219.6,144.7z"/>
				<path fill="#FFFFFF" d="M283,108.4c3.5,3.5,5.2,8.4,5.2,14.9V151h-4.5v-27.4c0-5.3-1.3-9.4-4-12.2c-2.7-2.8-6.5-4.2-11.3-4.2
					c-5.6,0-10,1.7-13.2,5c-3.2,3.3-4.8,7.8-4.8,13.5V151h-4.5v-47.4h4.4v10.3c1.6-3.3,4.1-5.9,7.3-7.8c3.2-1.9,7.1-2.8,11.5-2.8
					C274.9,103.2,279.6,104.9,283,108.4z"/>
				<path fill="#FFFFFF" d="M334.7,107.7c3.1,3,4.7,7.4,4.7,13.2V151H335v-8.5c-1.5,2.8-3.7,5-6.6,6.5c-2.9,1.5-6.4,2.3-10.5,2.3
					c-5.3,0-9.4-1.2-12.5-3.7c-3.1-2.5-4.6-5.8-4.6-9.8c0-3.9,1.4-7.1,4.2-9.6c2.8-2.5,7.3-3.7,13.5-3.7h16.3v-3.8
					c0-4.4-1.2-7.8-3.6-10.1c-2.4-2.3-5.9-3.5-10.5-3.5c-3.2,0-6.2,0.5-9,1.6c-2.9,1.1-5.3,2.5-7.3,4.4l-2.3-3.3
					c2.4-2.1,5.2-3.8,8.5-5c3.3-1.2,6.8-1.8,10.5-1.8C327,103.2,331.5,104.7,334.7,107.7z M328.6,144.9c2.8-1.8,4.8-4.5,6.2-7.9
					v-8.9h-16.2c-4.7,0-8,0.8-10.1,2.5c-2.1,1.7-3.1,4-3.1,7c0,3.1,1.2,5.5,3.5,7.3c2.3,1.8,5.5,2.7,9.7,2.7
					C322.5,147.6,325.9,146.7,328.6,144.9z"/>
				<path fill="#FFFFFF" d="M356.3,83.5h4.5V151h-4.5V83.5z"/>
			</g>
		</g>
	</g>
</g>
</svg>
